<mxfile host="app.diagrams.net" modified="2022-10-05T10:38:51.069Z" agent="5.0 (Macintosh; Intel Mac OS X 10_15_7) AppleWebKit/537.36 (KHTML, like Gecko) Chrome/105.0.0.0 Safari/537.36" etag="O6G72a2EXA_L1qbKV6jP" version="20.4.0" type="github" pages="4">
  <diagram id="OdQc7W83qYi903VyMi7l" name="Deployment Diagram">
    <mxGraphModel dx="946" dy="614" grid="1" gridSize="10" guides="1" tooltips="1" connect="1" arrows="1" fold="1" page="1" pageScale="1" pageWidth="827" pageHeight="1169" math="0" shadow="0">
      <root>
        <mxCell id="0" />
        <mxCell id="1" parent="0" />
        <mxCell id="mImAr-CVrIRnTz1cQua3-9" value="" style="edgeStyle=orthogonalEdgeStyle;rounded=0;orthogonalLoop=1;jettySize=auto;html=1;" parent="1" source="mImAr-CVrIRnTz1cQua3-1" target="mImAr-CVrIRnTz1cQua3-6" edge="1">
          <mxGeometry relative="1" as="geometry" />
        </mxCell>
        <mxCell id="mImAr-CVrIRnTz1cQua3-12" value="Internet" style="edgeLabel;html=1;align=center;verticalAlign=middle;resizable=0;points=[];" parent="mImAr-CVrIRnTz1cQua3-9" vertex="1" connectable="0">
          <mxGeometry x="-0.2718" y="-1" relative="1" as="geometry">
            <mxPoint x="11" y="-1" as="offset" />
          </mxGeometry>
        </mxCell>
        <mxCell id="mImAr-CVrIRnTz1cQua3-1" value="Web Browser &lt;br&gt;Service" style="rounded=0;whiteSpace=wrap;html=1;" parent="1" vertex="1">
          <mxGeometry x="80" y="80" width="160" height="80" as="geometry" />
        </mxCell>
        <mxCell id="mImAr-CVrIRnTz1cQua3-10" value="" style="edgeStyle=orthogonalEdgeStyle;rounded=0;orthogonalLoop=1;jettySize=auto;html=1;" parent="1" source="mImAr-CVrIRnTz1cQua3-6" target="mImAr-CVrIRnTz1cQua3-8" edge="1">
          <mxGeometry relative="1" as="geometry" />
        </mxCell>
        <mxCell id="mImAr-CVrIRnTz1cQua3-14" value="Internet" style="edgeLabel;html=1;align=center;verticalAlign=middle;resizable=0;points=[];" parent="mImAr-CVrIRnTz1cQua3-10" vertex="1" connectable="0">
          <mxGeometry x="-0.241" y="-2" relative="1" as="geometry">
            <mxPoint x="10" y="-2" as="offset" />
          </mxGeometry>
        </mxCell>
        <mxCell id="mImAr-CVrIRnTz1cQua3-6" value="Carcare Management&lt;br&gt;System Template" style="rounded=0;whiteSpace=wrap;html=1;" parent="1" vertex="1">
          <mxGeometry x="320" y="80" width="160" height="80" as="geometry" />
        </mxCell>
        <mxCell id="mImAr-CVrIRnTz1cQua3-8" value="Database &lt;br&gt;Server" style="rounded=0;whiteSpace=wrap;html=1;" parent="1" vertex="1">
          <mxGeometry x="560" y="80" width="160" height="80" as="geometry" />
        </mxCell>
      </root>
    </mxGraphModel>
  </diagram>
  <diagram id="TjMaUTZzYpLtjaPDfiLP" name="Context DFD">
    <mxGraphModel dx="4730" dy="3070" grid="1" gridSize="10" guides="1" tooltips="1" connect="1" arrows="1" fold="1" page="1" pageScale="1" pageWidth="827" pageHeight="1169" math="0" shadow="0">
      <root>
        <mxCell id="0" />
        <mxCell id="1" parent="0" />
        <mxCell id="nr0hAvdDId6Z5IJpEtOB-3" style="edgeStyle=none;rounded=0;orthogonalLoop=1;jettySize=auto;html=1;exitX=0.021;exitY=-0.001;exitDx=0;exitDy=0;fontSize=48;exitPerimeter=0;strokeColor=#006658;fontColor=#5C5C5C;entryX=1.012;entryY=0.915;entryDx=0;entryDy=0;entryPerimeter=0;" parent="1" target="tDY2C-3O9dusIMNdHt0a-2" edge="1">
          <mxGeometry relative="1" as="geometry">
            <mxPoint x="232.1279999999997" y="344.8" as="targetPoint" />
            <Array as="points">
              <mxPoint x="630" y="345.3" />
            </Array>
            <mxPoint x="629.7020000000002" y="455.00000000000006" as="sourcePoint" />
          </mxGeometry>
        </mxCell>
        <mxCell id="nr0hAvdDId6Z5IJpEtOB-4" value="Message Notify" style="edgeLabel;html=1;align=center;verticalAlign=middle;resizable=0;points=[];fontSize=11;rotation=0;fontColor=#5C5C5C;" parent="nr0hAvdDId6Z5IJpEtOB-3" vertex="1" connectable="0">
          <mxGeometry x="0.1374" y="1" relative="1" as="geometry">
            <mxPoint x="129" y="-11" as="offset" />
          </mxGeometry>
        </mxCell>
        <mxCell id="nr0hAvdDId6Z5IJpEtOB-5" style="edgeStyle=orthogonalEdgeStyle;rounded=0;orthogonalLoop=1;jettySize=auto;html=1;exitX=1;exitY=0.5;exitDx=0;exitDy=0;" parent="1" edge="1">
          <mxGeometry relative="1" as="geometry">
            <mxPoint x="1560" y="825" as="targetPoint" />
            <Array as="points">
              <mxPoint x="1560" y="495" />
              <mxPoint x="1560" y="825" />
            </Array>
            <mxPoint x="992" y="495" as="sourcePoint" />
          </mxGeometry>
        </mxCell>
        <mxCell id="5qrRk_hrT6tM-BiMjvT4-2" style="edgeStyle=orthogonalEdgeStyle;rounded=0;orthogonalLoop=1;jettySize=auto;html=1;exitX=0.5;exitY=0;exitDx=0;exitDy=0;" parent="1" edge="1">
          <mxGeometry relative="1" as="geometry">
            <mxPoint x="780" y="455" as="sourcePoint" />
            <mxPoint x="780" y="345" as="targetPoint" />
          </mxGeometry>
        </mxCell>
        <mxCell id="5qrRk_hrT6tM-BiMjvT4-4" value="Edit Success" style="edgeLabel;html=1;align=center;verticalAlign=middle;resizable=0;points=[];rotation=90;" parent="5qrRk_hrT6tM-BiMjvT4-2" connectable="0" vertex="1">
          <mxGeometry x="0.1114" relative="1" as="geometry">
            <mxPoint x="10" y="11" as="offset" />
          </mxGeometry>
        </mxCell>
        <mxCell id="nr0hAvdDId6Z5IJpEtOB-8" style="rounded=0;orthogonalLoop=1;jettySize=auto;html=1;exitX=0.053;exitY=1.001;exitDx=0;exitDy=0;entryX=1.002;entryY=0.095;entryDx=0;entryDy=0;exitPerimeter=0;entryPerimeter=0;strokeColor=#006658;fontColor=#5C5C5C;" parent="1" edge="1">
          <mxGeometry relative="1" as="geometry">
            <mxPoint x="1437.0079999999998" y="345" as="sourcePoint" />
            <mxPoint x="990.0039999999999" y="473.25" as="targetPoint" />
            <Array as="points">
              <mxPoint x="1437.08" y="474.75" />
              <mxPoint x="1217.08" y="474.75" />
            </Array>
          </mxGeometry>
        </mxCell>
        <mxCell id="nr0hAvdDId6Z5IJpEtOB-11" style="edgeStyle=none;rounded=0;orthogonalLoop=1;jettySize=auto;html=1;entryX=0;entryY=0.88;entryDx=0;entryDy=0;entryPerimeter=0;strokeColor=#006658;fontColor=#5C5C5C;exitX=0.931;exitY=-0.003;exitDx=0;exitDy=0;exitPerimeter=0;" parent="1" edge="1">
          <mxGeometry relative="1" as="geometry">
            <mxPoint x="960.1219999999998" y="454.0999999999999" as="sourcePoint" />
            <mxPoint x="1420" y="325" as="targetPoint" />
            <Array as="points">
              <mxPoint x="960" y="325" />
            </Array>
          </mxGeometry>
        </mxCell>
        <mxCell id="nr0hAvdDId6Z5IJpEtOB-12" value="Request Login" style="edgeLabel;html=1;align=center;verticalAlign=middle;resizable=0;points=[];rotation=0;fontColor=#5C5C5C;" parent="nr0hAvdDId6Z5IJpEtOB-11" vertex="1" connectable="0">
          <mxGeometry x="0.1299" y="-1" relative="1" as="geometry">
            <mxPoint x="-154" y="-10" as="offset" />
          </mxGeometry>
        </mxCell>
        <mxCell id="nr0hAvdDId6Z5IJpEtOB-13" style="edgeStyle=orthogonalEdgeStyle;rounded=0;orthogonalLoop=1;jettySize=auto;html=1;entryX=0;entryY=0;entryDx=0;entryDy=0;" parent="1" edge="1">
          <mxGeometry relative="1" as="geometry">
            <mxPoint x="190" y="355" as="sourcePoint" />
            <Array as="points">
              <mxPoint x="190" y="485" />
            </Array>
            <mxPoint x="600.0000000000005" y="485" as="targetPoint" />
          </mxGeometry>
        </mxCell>
        <mxCell id="nr0hAvdDId6Z5IJpEtOB-15" style="edgeStyle=none;rounded=0;orthogonalLoop=1;jettySize=auto;html=1;exitX=-0.001;exitY=0.358;exitDx=0;exitDy=0;fontSize=11;exitPerimeter=0;strokeColor=#006658;fontColor=#5C5C5C;entryX=0.801;entryY=1.003;entryDx=0;entryDy=0;entryPerimeter=0;" parent="1" edge="1">
          <mxGeometry relative="1" as="geometry">
            <Array as="points">
              <mxPoint x="909.92" y="915" />
            </Array>
            <mxPoint x="909.9819999999999" y="645.81" as="targetPoint" />
            <mxPoint x="1429.5439999999999" y="914.5" as="sourcePoint" />
          </mxGeometry>
        </mxCell>
        <mxCell id="nr0hAvdDId6Z5IJpEtOB-16" value="Request Create Order" style="edgeLabel;html=1;align=center;verticalAlign=middle;resizable=0;points=[];fontColor=#5C5C5C;rotation=0;" parent="nr0hAvdDId6Z5IJpEtOB-15" vertex="1" connectable="0">
          <mxGeometry x="-0.0042" relative="1" as="geometry">
            <mxPoint x="-27" y="-30" as="offset" />
          </mxGeometry>
        </mxCell>
        <mxCell id="nr0hAvdDId6Z5IJpEtOB-18" style="edgeStyle=orthogonalEdgeStyle;rounded=0;orthogonalLoop=1;jettySize=auto;html=1;exitX=0;exitY=0.25;exitDx=0;exitDy=0;entryX=0.931;entryY=1;entryDx=0;entryDy=0;entryPerimeter=0;" parent="1" edge="1">
          <mxGeometry relative="1" as="geometry">
            <Array as="points">
              <mxPoint x="1429.92" y="855" />
              <mxPoint x="969.92" y="855" />
            </Array>
            <mxPoint x="1429.92" y="887.5" as="sourcePoint" />
            <mxPoint x="970.0419999999998" y="645" as="targetPoint" />
          </mxGeometry>
        </mxCell>
        <mxCell id="nr0hAvdDId6Z5IJpEtOB-19" style="edgeStyle=orthogonalEdgeStyle;rounded=0;orthogonalLoop=1;jettySize=auto;html=1;exitX=0;exitY=0.5;exitDx=0;exitDy=0;" parent="1" edge="1">
          <mxGeometry relative="1" as="geometry">
            <mxPoint x="869.92" y="645" as="targetPoint" />
            <Array as="points">
              <mxPoint x="1429.92" y="955" />
              <mxPoint x="869.92" y="955" />
            </Array>
            <mxPoint x="1429.92" y="950" as="sourcePoint" />
          </mxGeometry>
        </mxCell>
        <mxCell id="nr0hAvdDId6Z5IJpEtOB-22" style="edgeStyle=orthogonalEdgeStyle;rounded=0;orthogonalLoop=1;jettySize=auto;html=1;exitX=0.998;exitY=0.039;exitDx=0;exitDy=0;entryX=0.02;entryY=1;entryDx=0;entryDy=0;exitPerimeter=0;entryPerimeter=0;" parent="1" edge="1">
          <mxGeometry relative="1" as="geometry">
            <Array as="points">
              <mxPoint x="609" y="835" />
            </Array>
            <mxPoint x="210.24800000000005" y="834.75" as="sourcePoint" />
            <mxPoint x="609.2399999999998" y="645" as="targetPoint" />
          </mxGeometry>
        </mxCell>
        <mxCell id="nr0hAvdDId6Z5IJpEtOB-23" style="edgeStyle=orthogonalEdgeStyle;rounded=0;orthogonalLoop=1;jettySize=auto;html=1;exitX=1;exitY=0.12;exitDx=0;exitDy=0;exitPerimeter=0;" parent="1" edge="1">
          <mxGeometry relative="1" as="geometry">
            <mxPoint x="630" y="645" as="targetPoint" />
            <Array as="points">
              <mxPoint x="630" y="855" />
            </Array>
            <mxPoint x="210.99999999999955" y="855" as="sourcePoint" />
          </mxGeometry>
        </mxCell>
        <mxCell id="nr0hAvdDId6Z5IJpEtOB-24" style="edgeStyle=orthogonalEdgeStyle;rounded=0;orthogonalLoop=1;jettySize=auto;html=1;exitX=1.001;exitY=0.2;exitDx=0;exitDy=0;exitPerimeter=0;" parent="1" edge="1">
          <mxGeometry relative="1" as="geometry">
            <mxPoint x="650" y="645" as="targetPoint" />
            <Array as="points">
              <mxPoint x="650" y="875" />
            </Array>
            <mxPoint x="211.3760000000002" y="875" as="sourcePoint" />
          </mxGeometry>
        </mxCell>
        <mxCell id="nr0hAvdDId6Z5IJpEtOB-25" style="edgeStyle=orthogonalEdgeStyle;rounded=0;orthogonalLoop=1;jettySize=auto;html=1;exitX=1;exitY=0.276;exitDx=0;exitDy=0;entryX=0.152;entryY=1.005;entryDx=0;entryDy=0;entryPerimeter=0;exitPerimeter=0;" parent="1" edge="1">
          <mxGeometry relative="1" as="geometry">
            <mxPoint x="670.2240000000002" y="646.3499999999999" as="targetPoint" />
            <mxPoint x="210.99999999999955" y="894" as="sourcePoint" />
          </mxGeometry>
        </mxCell>
        <mxCell id="nr0hAvdDId6Z5IJpEtOB-26" style="edgeStyle=orthogonalEdgeStyle;rounded=0;orthogonalLoop=1;jettySize=auto;html=1;exitX=1.001;exitY=0.357;exitDx=0;exitDy=0;exitPerimeter=0;" parent="1" edge="1">
          <mxGeometry relative="1" as="geometry">
            <mxPoint x="690" y="645" as="targetPoint" />
            <Array as="points">
              <mxPoint x="690" y="914" />
              <mxPoint x="690" y="645" />
            </Array>
            <mxPoint x="211.3760000000002" y="914.25" as="sourcePoint" />
          </mxGeometry>
        </mxCell>
        <mxCell id="nr0hAvdDId6Z5IJpEtOB-27" style="edgeStyle=orthogonalEdgeStyle;rounded=0;orthogonalLoop=1;jettySize=auto;html=1;exitX=1.001;exitY=0.439;exitDx=0;exitDy=0;exitPerimeter=0;entryX=0.238;entryY=1;entryDx=0;entryDy=0;entryPerimeter=0;" parent="1" edge="1">
          <mxGeometry relative="1" as="geometry">
            <mxPoint x="709.9560000000001" y="645" as="targetPoint" />
            <mxPoint x="211.3760000000002" y="934.75" as="sourcePoint" />
          </mxGeometry>
        </mxCell>
        <mxCell id="nr0hAvdDId6Z5IJpEtOB-28" style="edgeStyle=orthogonalEdgeStyle;rounded=0;orthogonalLoop=1;jettySize=auto;html=1;exitX=1;exitY=0.521;exitDx=0;exitDy=0;exitPerimeter=0;" parent="1" edge="1">
          <mxGeometry relative="1" as="geometry">
            <Array as="points">
              <mxPoint x="730" y="955" />
              <mxPoint x="730" y="646" />
            </Array>
            <mxPoint x="730" y="645" as="targetPoint" />
            <mxPoint x="210.99999999999955" y="955.25" as="sourcePoint" />
          </mxGeometry>
        </mxCell>
        <mxCell id="nr0hAvdDId6Z5IJpEtOB-30" style="edgeStyle=none;rounded=0;orthogonalLoop=1;jettySize=auto;html=1;fontSize=11;strokeColor=#006658;fontColor=#5C5C5C;exitX=0;exitY=0.28;exitDx=0;exitDy=0;exitPerimeter=0;entryX=0.841;entryY=1.004;entryDx=0;entryDy=0;entryPerimeter=0;" parent="1" edge="1">
          <mxGeometry relative="1" as="geometry">
            <mxPoint x="1429.92" y="895" as="sourcePoint" />
            <mxPoint x="928.4619999999999" y="646.0799999999999" as="targetPoint" />
            <Array as="points">
              <mxPoint x="929.92" y="895" />
            </Array>
          </mxGeometry>
        </mxCell>
        <mxCell id="nr0hAvdDId6Z5IJpEtOB-31" value="Slip info" style="edgeLabel;html=1;align=center;verticalAlign=middle;resizable=0;points=[];fontColor=#5C5C5C;rotation=0;" parent="nr0hAvdDId6Z5IJpEtOB-30" vertex="1" connectable="0">
          <mxGeometry x="0.2029" y="-2" relative="1" as="geometry">
            <mxPoint x="-69" y="52" as="offset" />
          </mxGeometry>
        </mxCell>
        <mxCell id="nr0hAvdDId6Z5IJpEtOB-32" style="edgeStyle=none;rounded=0;orthogonalLoop=1;jettySize=auto;html=1;exitX=0;exitY=0.202;exitDx=0;exitDy=0;entryX=0.884;entryY=1.003;entryDx=0;entryDy=0;entryPerimeter=0;fontSize=11;strokeColor=#006658;fontColor=#5C5C5C;endArrow=classic;endFill=1;startArrow=none;startFill=0;exitPerimeter=0;" parent="1" edge="1">
          <mxGeometry relative="1" as="geometry">
            <mxPoint x="1429.92" y="875.5" as="sourcePoint" />
            <mxPoint x="948.3279999999999" y="645.81" as="targetPoint" />
            <Array as="points">
              <mxPoint x="1009.92" y="875" />
              <mxPoint x="949.92" y="875" />
            </Array>
          </mxGeometry>
        </mxCell>
        <mxCell id="nr0hAvdDId6Z5IJpEtOB-33" value="Request Buy (Buy list)" style="edgeLabel;html=1;align=center;verticalAlign=middle;resizable=0;points=[];fontColor=#5C5C5C;rotation=0;" parent="nr0hAvdDId6Z5IJpEtOB-32" vertex="1" connectable="0">
          <mxGeometry x="0.1254" y="1" relative="1" as="geometry">
            <mxPoint x="-1" y="-11" as="offset" />
          </mxGeometry>
        </mxCell>
        <mxCell id="nr0hAvdDId6Z5IJpEtOB-35" style="edgeStyle=none;rounded=0;orthogonalLoop=1;jettySize=auto;html=1;exitX=0.21;exitY=-0.002;exitDx=0;exitDy=0;entryX=1.003;entryY=0.664;entryDx=0;entryDy=0;fontSize=11;exitPerimeter=0;strokeColor=#006658;fontColor=#5C5C5C;startArrow=classic;startFill=1;endArrow=none;endFill=0;entryPerimeter=0;" parent="1" edge="1">
          <mxGeometry relative="1" as="geometry">
            <mxPoint x="1498.96" y="824.5" as="sourcePoint" />
            <mxPoint x="993.386" y="554.28" as="targetPoint" />
            <Array as="points">
              <mxPoint x="1500" y="555" />
              <mxPoint x="1420" y="555" />
              <mxPoint x="1210" y="555" />
            </Array>
          </mxGeometry>
        </mxCell>
        <mxCell id="nr0hAvdDId6Z5IJpEtOB-38" style="edgeStyle=orthogonalEdgeStyle;rounded=0;orthogonalLoop=1;jettySize=auto;html=1;strokeColor=#006658;fontColor=#5C5C5C;startArrow=none;startFill=0;endArrow=classic;endFill=1;fillColor=#21C0A5;exitX=1.001;exitY=0.586;exitDx=0;exitDy=0;exitPerimeter=0;" parent="1" edge="1">
          <mxGeometry relative="1" as="geometry">
            <mxPoint x="992.462" y="533.22" as="sourcePoint" />
            <mxPoint x="1540" y="825" as="targetPoint" />
            <Array as="points">
              <mxPoint x="993" y="515" />
              <mxPoint x="1540" y="515" />
            </Array>
          </mxGeometry>
        </mxCell>
        <mxCell id="nr0hAvdDId6Z5IJpEtOB-39" value="Confirmation Buy" style="edgeLabel;html=1;align=center;verticalAlign=middle;resizable=0;points=[];fontColor=#5C5C5C;rotation=0;" parent="nr0hAvdDId6Z5IJpEtOB-38" vertex="1" connectable="0">
          <mxGeometry x="0.1194" y="1" relative="1" as="geometry">
            <mxPoint x="-14" y="31" as="offset" />
          </mxGeometry>
        </mxCell>
        <mxCell id="nr0hAvdDId6Z5IJpEtOB-41" value="Confirmation Login" style="edgeLabel;html=1;align=center;verticalAlign=middle;resizable=0;points=[];fontColor=#5C5C5C;rotation=0;" parent="1" vertex="1" connectable="0">
          <mxGeometry x="1469.999479735389" y="524.995687172228" as="geometry" />
        </mxCell>
        <mxCell id="nr0hAvdDId6Z5IJpEtOB-42" value="Data User" style="edgeLabel;html=1;align=center;verticalAlign=middle;resizable=0;points=[];fontColor=#5C5C5C;rotation=0;" parent="1" vertex="1" connectable="0">
          <mxGeometry x="1399.9994797353893" y="464.99568717222803" as="geometry" />
        </mxCell>
        <mxCell id="nr0hAvdDId6Z5IJpEtOB-44" value="Employee Detail" style="edgeLabel;html=1;align=center;verticalAlign=middle;resizable=0;points=[];fontColor=#5C5C5C;rotation=0;" parent="1" vertex="1" connectable="0">
          <mxGeometry x="570.002727272728" y="845.0000000000002" as="geometry" />
        </mxCell>
        <mxCell id="nr0hAvdDId6Z5IJpEtOB-45" value="Request Login" style="edgeLabel;html=1;align=center;verticalAlign=middle;resizable=0;points=[];fontColor=#5C5C5C;rotation=0;" parent="1" vertex="1" connectable="0">
          <mxGeometry x="600.002727272728" y="865.0000000000002" as="geometry" />
        </mxCell>
        <mxCell id="nr0hAvdDId6Z5IJpEtOB-46" value="Confirm Slip" style="edgeLabel;html=1;align=center;verticalAlign=middle;resizable=0;points=[];fontColor=#5C5C5C;rotation=0;" parent="1" vertex="1" connectable="0">
          <mxGeometry x="620.002727272728" y="885.0000000000002" as="geometry" />
        </mxCell>
        <mxCell id="nr0hAvdDId6Z5IJpEtOB-47" value="Edit Order" style="edgeLabel;html=1;align=center;verticalAlign=middle;resizable=0;points=[];fontColor=#5C5C5C;rotation=0;" parent="1" vertex="1" connectable="0">
          <mxGeometry x="650.002727272728" y="905.0000000000002" as="geometry" />
        </mxCell>
        <mxCell id="nr0hAvdDId6Z5IJpEtOB-48" value="Add attendance" style="edgeLabel;html=1;align=center;verticalAlign=middle;resizable=0;points=[];fontColor=#5C5C5C;rotation=0;" parent="1" vertex="1" connectable="0">
          <mxGeometry x="660.002727272728" y="925.0000000000002" as="geometry" />
        </mxCell>
        <mxCell id="nr0hAvdDId6Z5IJpEtOB-49" value="Add Workleave" style="edgeLabel;html=1;align=center;verticalAlign=middle;resizable=0;points=[];fontColor=#5C5C5C;rotation=0;" parent="1" vertex="1" connectable="0">
          <mxGeometry x="680.002727272728" y="945.0000000000002" as="geometry" />
        </mxCell>
        <mxCell id="nr0hAvdDId6Z5IJpEtOB-50" value="Employee Edit Request" style="edgeLabel;html=1;align=center;verticalAlign=middle;resizable=0;points=[];fontColor=#5C5C5C;rotation=0;" parent="1" vertex="1" connectable="0">
          <mxGeometry x="530.002727272728" y="825.0000000000002" as="geometry">
            <mxPoint x="9" y="-3" as="offset" />
          </mxGeometry>
        </mxCell>
        <mxCell id="nr0hAvdDId6Z5IJpEtOB-51" value="Edit Success" style="edgeLabel;html=1;align=center;verticalAlign=middle;resizable=0;points=[];fontColor=#5C5C5C;rotation=0;" parent="1" vertex="1" connectable="0">
          <mxGeometry x="220.00272727272795" y="585.0000000000002" as="geometry" />
        </mxCell>
        <mxCell id="nr0hAvdDId6Z5IJpEtOB-52" value="Add Success" style="edgeLabel;html=1;align=center;verticalAlign=middle;resizable=0;points=[];fontColor=#5C5C5C;rotation=0;" parent="1" vertex="1" connectable="0">
          <mxGeometry x="240.00272727272795" y="595.0000000000002" as="geometry">
            <mxPoint x="-11" y="11" as="offset" />
          </mxGeometry>
        </mxCell>
        <mxCell id="nr0hAvdDId6Z5IJpEtOB-53" value="Summary Success" style="edgeLabel;html=1;align=center;verticalAlign=middle;resizable=0;points=[];fontColor=#5C5C5C;rotation=0;" parent="1" vertex="1" connectable="0">
          <mxGeometry x="270.00272727272795" y="625.0000000000002" as="geometry" />
        </mxCell>
        <mxCell id="nr0hAvdDId6Z5IJpEtOB-54" style="edgeStyle=orthogonalEdgeStyle;rounded=0;orthogonalLoop=1;jettySize=auto;html=1;exitX=0.001;exitY=0.963;exitDx=0;exitDy=0;exitPerimeter=0;entryX=0.996;entryY=0;entryDx=0;entryDy=0;entryPerimeter=0;" parent="1" edge="1">
          <mxGeometry relative="1" as="geometry">
            <mxPoint x="209.49599999999964" y="825" as="targetPoint" />
            <mxPoint x="600.462" y="635.01" as="sourcePoint" />
          </mxGeometry>
        </mxCell>
        <mxCell id="nr0hAvdDId6Z5IJpEtOB-55" style="edgeStyle=orthogonalEdgeStyle;rounded=0;orthogonalLoop=1;jettySize=auto;html=1;" parent="1" edge="1">
          <mxGeometry relative="1" as="geometry">
            <mxPoint x="600" y="615" as="sourcePoint" />
            <mxPoint x="190" y="825" as="targetPoint" />
            <Array as="points">
              <mxPoint x="190" y="615" />
              <mxPoint x="190" y="825" />
            </Array>
          </mxGeometry>
        </mxCell>
        <mxCell id="nr0hAvdDId6Z5IJpEtOB-56" style="edgeStyle=orthogonalEdgeStyle;rounded=0;orthogonalLoop=1;jettySize=auto;html=1;exitX=-0.002;exitY=0.815;exitDx=0;exitDy=0;exitPerimeter=0;" parent="1" edge="1">
          <mxGeometry relative="1" as="geometry">
            <mxPoint x="170" y="825" as="targetPoint" />
            <Array as="points">
              <mxPoint x="170" y="595" />
              <mxPoint x="170" y="825" />
            </Array>
            <mxPoint x="599.076" y="595.05" as="sourcePoint" />
          </mxGeometry>
        </mxCell>
        <mxCell id="nr0hAvdDId6Z5IJpEtOB-59" value="Data" style="edgeLabel;html=1;align=center;verticalAlign=middle;resizable=0;points=[];fontColor=#5C5C5C;rotation=0;" parent="1" vertex="1" connectable="0">
          <mxGeometry x="1439.9994797353893" y="584.995687172228" as="geometry" />
        </mxCell>
        <mxCell id="nr0hAvdDId6Z5IJpEtOB-60" style="edgeStyle=orthogonalEdgeStyle;rounded=0;orthogonalLoop=1;jettySize=auto;html=1;exitX=1.002;exitY=0.742;exitDx=0;exitDy=0;entryX=0.158;entryY=-0.002;entryDx=0;entryDy=0;entryPerimeter=0;exitPerimeter=0;" parent="1" edge="1">
          <mxGeometry relative="1" as="geometry">
            <mxPoint x="992.924" y="575.3399999999999" as="sourcePoint" />
            <mxPoint x="1479.408" y="824.5" as="targetPoint" />
          </mxGeometry>
        </mxCell>
        <mxCell id="nr0hAvdDId6Z5IJpEtOB-61" style="edgeStyle=orthogonalEdgeStyle;rounded=0;orthogonalLoop=1;jettySize=auto;html=1;exitX=1.001;exitY=0.593;exitDx=0;exitDy=0;entryX=0.266;entryY=-0.002;entryDx=0;entryDy=0;entryPerimeter=0;exitPerimeter=0;" parent="1" edge="1">
          <mxGeometry relative="1" as="geometry">
            <mxPoint x="1520.016" y="824.5" as="targetPoint" />
            <Array as="points">
              <mxPoint x="1520" y="535" />
            </Array>
            <mxPoint x="992.462" y="535.1099999999999" as="sourcePoint" />
          </mxGeometry>
        </mxCell>
        <mxCell id="nr0hAvdDId6Z5IJpEtOB-64" value="Customer Request Success" style="edgeLabel;html=1;align=center;verticalAlign=middle;resizable=0;points=[];fontColor=#5C5C5C;rotation=0;" parent="1" vertex="1" connectable="0">
          <mxGeometry x="1479.996571428571" y="485" as="geometry" />
        </mxCell>
        <mxCell id="nr0hAvdDId6Z5IJpEtOB-65" value="Request Login" style="edgeLabel;html=1;align=center;verticalAlign=middle;resizable=0;points=[];fontColor=#5C5C5C;rotation=0;" parent="1" vertex="1" connectable="0">
          <mxGeometry x="969.9194797353892" y="904.995687172228" as="geometry" />
        </mxCell>
        <mxCell id="nr0hAvdDId6Z5IJpEtOB-66" style="edgeStyle=orthogonalEdgeStyle;rounded=0;orthogonalLoop=1;jettySize=auto;html=1;exitX=0;exitY=0.442;exitDx=0;exitDy=0;entryX=0.75;entryY=1;entryDx=0;entryDy=0;exitPerimeter=0;" parent="1" edge="1">
          <mxGeometry relative="1" as="geometry">
            <mxPoint x="1429.92" y="935.5" as="sourcePoint" />
            <mxPoint x="888.9200000000009" y="645" as="targetPoint" />
            <Array as="points">
              <mxPoint x="888.92" y="935" />
            </Array>
          </mxGeometry>
        </mxCell>
        <mxCell id="nr0hAvdDId6Z5IJpEtOB-67" value="Access Web" style="edgeLabel;html=1;align=center;verticalAlign=middle;resizable=0;points=[];fontColor=#5C5C5C;rotation=0;" parent="1" vertex="1" connectable="0">
          <mxGeometry x="939.9169090846539" y="924.9978954502827" as="geometry" />
        </mxCell>
        <mxCell id="nr0hAvdDId6Z5IJpEtOB-68" value="Login Success" style="edgeLabel;html=1;align=center;verticalAlign=middle;resizable=0;points=[];fontColor=#5C5C5C;rotation=0;" parent="1" vertex="1" connectable="0">
          <mxGeometry x="200.00272727272795" y="565.0000000000002" as="geometry" />
        </mxCell>
        <mxCell id="nr0hAvdDId6Z5IJpEtOB-69" style="edgeStyle=orthogonalEdgeStyle;rounded=0;orthogonalLoop=1;jettySize=auto;html=1;entryX=0.836;entryY=-0.003;entryDx=0;entryDy=0;entryPerimeter=0;" parent="1" edge="1">
          <mxGeometry relative="1" as="geometry">
            <mxPoint x="600" y="575" as="sourcePoint" />
            <Array as="points">
              <mxPoint x="600" y="575" />
              <mxPoint x="149" y="575" />
            </Array>
            <mxPoint x="149.33599999999979" y="824.25" as="targetPoint" />
          </mxGeometry>
        </mxCell>
        <mxCell id="nr0hAvdDId6Z5IJpEtOB-70" value="Apply Success" style="edgeLabel;html=1;align=center;verticalAlign=middle;resizable=0;points=[];fontColor=#5C5C5C;rotation=0;" parent="1" vertex="1" connectable="0">
          <mxGeometry x="180.00272727272795" y="545.0000000000002" as="geometry" />
        </mxCell>
        <mxCell id="nr0hAvdDId6Z5IJpEtOB-71" style="edgeStyle=orthogonalEdgeStyle;rounded=0;orthogonalLoop=1;jettySize=auto;html=1;entryX=0.785;entryY=-0.002;entryDx=0;entryDy=0;entryPerimeter=0;" parent="1" edge="1">
          <mxGeometry relative="1" as="geometry">
            <mxPoint x="600" y="555" as="sourcePoint" />
            <Array as="points">
              <mxPoint x="130" y="555" />
            </Array>
            <mxPoint x="130.15999999999985" y="824.5" as="targetPoint" />
          </mxGeometry>
        </mxCell>
        <mxCell id="nr0hAvdDId6Z5IJpEtOB-72" style="edgeStyle=orthogonalEdgeStyle;rounded=0;orthogonalLoop=1;jettySize=auto;html=1;exitX=-0.002;exitY=0.593;exitDx=0;exitDy=0;exitPerimeter=0;" parent="1" edge="1">
          <mxGeometry relative="1" as="geometry">
            <mxPoint x="110" y="825" as="targetPoint" />
            <Array as="points">
              <mxPoint x="110" y="535" />
            </Array>
            <mxPoint x="599.076" y="535.1099999999999" as="sourcePoint" />
          </mxGeometry>
        </mxCell>
        <mxCell id="nr0hAvdDId6Z5IJpEtOB-73" value="Employee Request Success" style="edgeLabel;html=1;align=center;verticalAlign=middle;resizable=0;points=[];fontColor=#5C5C5C;rotation=0;" parent="1" vertex="1" connectable="0">
          <mxGeometry x="180.00272727272795" y="525.0000000000002" as="geometry" />
        </mxCell>
        <mxCell id="nr0hAvdDId6Z5IJpEtOB-76" value="Confirmation notify" style="edgeLabel;html=1;align=center;verticalAlign=middle;resizable=0;points=[];fontSize=11;rotation=0;fontColor=#5C5C5C;" parent="1" vertex="1" connectable="0">
          <mxGeometry x="249.99786074331598" y="474.9952147538477" as="geometry" />
        </mxCell>
        <mxCell id="ThtSRWl7tpQaj87L0JRd-1" value="Confirmation Create Order" style="edgeLabel;html=1;align=center;verticalAlign=middle;resizable=0;points=[];fontColor=#5C5C5C;rotation=0;" parent="1" vertex="1" connectable="0">
          <mxGeometry x="1469.9999603732592" y="505" as="geometry" />
        </mxCell>
        <mxCell id="ThtSRWl7tpQaj87L0JRd-2" value="Receipt" style="edgeLabel;html=1;align=center;verticalAlign=middle;resizable=0;points=[];fontColor=#5C5C5C;rotation=0;" parent="1" vertex="1" connectable="0">
          <mxGeometry x="1449.9999603732592" y="565" as="geometry" />
        </mxCell>
        <mxCell id="ThtSRWl7tpQaj87L0JRd-3" value="Customer Edit Request" style="edgeLabel;html=1;align=center;verticalAlign=middle;resizable=0;points=[];fontColor=#5C5C5C;rotation=0;" parent="1" vertex="1" connectable="0">
          <mxGeometry x="1049.9165714285712" y="845" as="geometry" />
        </mxCell>
        <mxCell id="ThtSRWl7tpQaj87L0JRd-7" style="edgeStyle=orthogonalEdgeStyle;rounded=0;orthogonalLoop=1;jettySize=auto;html=1;exitX=1.002;exitY=0.742;exitDx=0;exitDy=0;entryX=0.105;entryY=-0.006;entryDx=0;entryDy=0;entryPerimeter=0;exitPerimeter=0;" parent="1" edge="1">
          <mxGeometry relative="1" as="geometry">
            <mxPoint x="992.0039999999999" y="595.04" as="sourcePoint" />
            <mxPoint x="1459.48" y="823.5" as="targetPoint" />
            <Array as="points">
              <mxPoint x="1460" y="595" />
            </Array>
          </mxGeometry>
        </mxCell>
        <mxCell id="5qrRk_hrT6tM-BiMjvT4-3" style="edgeStyle=orthogonalEdgeStyle;rounded=0;orthogonalLoop=1;jettySize=auto;html=1;entryX=0.541;entryY=0.005;entryDx=0;entryDy=0;entryPerimeter=0;" parent="1" edge="1">
          <mxGeometry relative="1" as="geometry">
            <mxPoint x="820" y="345" as="sourcePoint" />
            <mxPoint x="819.942" y="456.5" as="targetPoint" />
            <Array as="points">
              <mxPoint x="800" y="345" />
              <mxPoint x="800" y="457" />
            </Array>
          </mxGeometry>
        </mxCell>
        <mxCell id="5qrRk_hrT6tM-BiMjvT4-5" value="Edit Request" style="edgeLabel;html=1;align=center;verticalAlign=middle;resizable=0;points=[];rotation=90;" parent="5qrRk_hrT6tM-BiMjvT4-3" connectable="0" vertex="1">
          <mxGeometry x="-0.095" y="-2" relative="1" as="geometry">
            <mxPoint x="12" y="11" as="offset" />
          </mxGeometry>
        </mxCell>
        <mxCell id="5qrRk_hrT6tM-BiMjvT4-1" value="Owner" style="whiteSpace=wrap;html=1;align=center;fontSize=26;fontStyle=1;fillColor=#21C0A5;strokeColor=#006658;fontColor=#5C5C5C;" parent="1" vertex="1">
          <mxGeometry x="701" y="195" width="200" height="150" as="geometry" />
        </mxCell>
        <mxCell id="tDY2C-3O9dusIMNdHt0a-1" value="Employee" style="whiteSpace=wrap;html=1;align=center;fontSize=26;fontStyle=1;fillColor=#21C0A5;strokeColor=#006658;fontColor=#5C5C5C;" vertex="1" parent="1">
          <mxGeometry x="10" y="825" width="201" height="150" as="geometry" />
        </mxCell>
        <mxCell id="tDY2C-3O9dusIMNdHt0a-2" value="SMS Provider" style="whiteSpace=wrap;html=1;align=center;fontSize=26;fontStyle=1;fillColor=#21C0A5;strokeColor=#006658;fontColor=#5C5C5C;" vertex="1" parent="1">
          <mxGeometry x="10" y="205" width="201" height="150" as="geometry" />
        </mxCell>
        <mxCell id="tDY2C-3O9dusIMNdHt0a-3" value="Firebase Authentication" style="whiteSpace=wrap;html=1;align=center;fontSize=26;fontStyle=1;fillColor=#21C0A5;strokeColor=#006658;fontColor=#5C5C5C;" vertex="1" parent="1">
          <mxGeometry x="1420" y="205" width="210" height="150" as="geometry" />
        </mxCell>
        <mxCell id="tDY2C-3O9dusIMNdHt0a-4" value="Customer" style="whiteSpace=wrap;html=1;align=center;fontSize=26;fontStyle=1;fillColor=#21C0A5;strokeColor=#006658;fontColor=#5C5C5C;" vertex="1" parent="1">
          <mxGeometry x="1430" y="825" width="200" height="150" as="geometry" />
        </mxCell>
        <mxCell id="tDY2C-3O9dusIMNdHt0a-5" value="0" style="swimlane;childLayout=stackLayout;horizontal=1;startSize=30;horizontalStack=0;rounded=1;fontSize=26;fontStyle=1;strokeWidth=2;resizeParent=0;resizeLast=1;shadow=0;dashed=0;align=center;fillColor=#21C0A5;strokeColor=#006658;fontColor=#5C5C5C;" vertex="1" parent="1">
          <mxGeometry x="602" y="455" width="390" height="190" as="geometry" />
        </mxCell>
        <mxCell id="tDY2C-3O9dusIMNdHt0a-6" value="Carcare Manage&#xa;System" style="align=center;strokeColor=none;fillColor=none;spacingLeft=4;fontSize=48;verticalAlign=middle;resizable=0;rotatable=0;part=1;fontStyle=1;fontColor=#5C5C5C;" vertex="1" parent="tDY2C-3O9dusIMNdHt0a-5">
          <mxGeometry y="30" width="390" height="160" as="geometry" />
        </mxCell>
      </root>
    </mxGraphModel>
  </diagram>
  <diagram id="hxJTwfKk-H5Xy9anXFuF" name="DFD Lv0">
    <mxGraphModel dx="7084" dy="4795" grid="1" gridSize="10" guides="1" tooltips="1" connect="1" arrows="1" fold="1" page="1" pageScale="1" pageWidth="3300" pageHeight="2339" math="0" shadow="0">
      <root>
        <mxCell id="0" />
        <mxCell id="1" parent="0" />
        <mxCell id="S4vICWb9RmVqiigJqbIK-37" style="edgeStyle=orthogonalEdgeStyle;rounded=0;orthogonalLoop=1;jettySize=auto;html=1;exitX=0.777;exitY=-0.001;exitDx=0;exitDy=0;entryX=0.5;entryY=1;entryDx=0;entryDy=0;exitPerimeter=0;" parent="1" source="S4vICWb9RmVqiigJqbIK-98" target="S4vICWb9RmVqiigJqbIK-44" edge="1">
          <mxGeometry relative="1" as="geometry">
            <mxPoint x="-2440.56" y="-1220.96" as="sourcePoint" />
            <mxPoint x="-2410" y="-1497" as="targetPoint" />
          </mxGeometry>
        </mxCell>
        <mxCell id="26-_QEdhsg3uctZ_GNh8-6" value="request login" style="edgeLabel;html=1;align=center;verticalAlign=middle;resizable=0;points=[];rotation=90;" parent="S4vICWb9RmVqiigJqbIK-37" vertex="1" connectable="0">
          <mxGeometry x="0.1459" y="1" relative="1" as="geometry">
            <mxPoint x="1" y="-5" as="offset" />
          </mxGeometry>
        </mxCell>
        <mxCell id="S4vICWb9RmVqiigJqbIK-47" style="edgeStyle=orthogonalEdgeStyle;rounded=0;orthogonalLoop=1;jettySize=auto;html=1;entryX=-0.001;entryY=0.695;entryDx=0;entryDy=0;entryPerimeter=0;exitX=0.805;exitY=0.002;exitDx=0;exitDy=0;exitPerimeter=0;" parent="1" source="S4vICWb9RmVqiigJqbIK-98" edge="1">
          <mxGeometry relative="1" as="geometry">
            <mxPoint x="-2429.8543902439023" y="-1271.5" as="sourcePoint" />
            <Array as="points">
              <mxPoint x="-2430" y="-1352" />
              <mxPoint x="-2290" y="-1352" />
            </Array>
            <mxPoint x="-2290.0040000000004" y="-1351.0350000000003" as="targetPoint" />
          </mxGeometry>
        </mxCell>
        <mxCell id="26-_QEdhsg3uctZ_GNh8-20" value="request buy(buy list)" style="edgeLabel;html=1;align=center;verticalAlign=middle;resizable=0;points=[];rotation=0;" parent="S4vICWb9RmVqiigJqbIK-47" vertex="1" connectable="0">
          <mxGeometry x="0.0059" y="-1" relative="1" as="geometry">
            <mxPoint x="51" y="-1" as="offset" />
          </mxGeometry>
        </mxCell>
        <mxCell id="S4vICWb9RmVqiigJqbIK-86" style="edgeStyle=orthogonalEdgeStyle;rounded=0;orthogonalLoop=1;jettySize=auto;html=1;exitX=0.076;exitY=-0.002;exitDx=0;exitDy=0;entryX=0;entryY=0.296;entryDx=0;entryDy=0;entryPerimeter=0;exitPerimeter=0;" parent="1" target="S4vICWb9RmVqiigJqbIK-66" edge="1">
          <mxGeometry relative="1" as="geometry">
            <mxPoint x="-2630.08" y="-1220.96" as="sourcePoint" />
            <Array as="points">
              <mxPoint x="-2630" y="-2151" />
            </Array>
          </mxGeometry>
        </mxCell>
        <mxCell id="26-_QEdhsg3uctZ_GNh8-53" value="customer edit request" style="edgeLabel;html=1;align=center;verticalAlign=middle;resizable=0;points=[];rotation=90;" parent="S4vICWb9RmVqiigJqbIK-86" vertex="1" connectable="0">
          <mxGeometry x="0.3231" y="-3" relative="1" as="geometry">
            <mxPoint y="68" as="offset" />
          </mxGeometry>
        </mxCell>
        <mxCell id="S4vICWb9RmVqiigJqbIK-79" style="edgeStyle=orthogonalEdgeStyle;rounded=0;orthogonalLoop=1;jettySize=auto;html=1;exitX=0.648;exitY=0.002;exitDx=0;exitDy=0;entryX=1.006;entryY=0.352;entryDx=0;entryDy=0;entryPerimeter=0;exitPerimeter=0;" parent="1" source="7h5jGF_3rGkxscpFPyfr-1" target="S4vICWb9RmVqiigJqbIK-73" edge="1">
          <mxGeometry relative="1" as="geometry">
            <Array as="points">
              <mxPoint x="-543" y="-1950" />
            </Array>
          </mxGeometry>
        </mxCell>
        <mxCell id="26-_QEdhsg3uctZ_GNh8-58" value="employee detail" style="edgeLabel;html=1;align=center;verticalAlign=middle;resizable=0;points=[];rotation=90;" parent="S4vICWb9RmVqiigJqbIK-79" vertex="1" connectable="0">
          <mxGeometry x="0.1686" y="5" relative="1" as="geometry">
            <mxPoint x="5" as="offset" />
          </mxGeometry>
        </mxCell>
        <mxCell id="S4vICWb9RmVqiigJqbIK-124" style="edgeStyle=orthogonalEdgeStyle;rounded=0;orthogonalLoop=1;jettySize=auto;html=1;exitX=0.001;exitY=0.544;exitDx=0;exitDy=0;exitPerimeter=0;" parent="1" source="7h5jGF_3rGkxscpFPyfr-1" target="3MDlPkKo6m4XxgB9dood-12" edge="1">
          <mxGeometry relative="1" as="geometry">
            <Array as="points">
              <mxPoint x="-1009" y="-990" />
            </Array>
            <mxPoint x="-1179.4359999999997" y="-829.9749999999999" as="targetPoint" />
          </mxGeometry>
        </mxCell>
        <mxCell id="26-_QEdhsg3uctZ_GNh8-79" value="add workleave" style="edgeLabel;html=1;align=center;verticalAlign=middle;resizable=0;points=[];" parent="S4vICWb9RmVqiigJqbIK-124" vertex="1" connectable="0">
          <mxGeometry x="0.2927" y="4" relative="1" as="geometry">
            <mxPoint x="27" y="-4" as="offset" />
          </mxGeometry>
        </mxCell>
        <mxCell id="S4vICWb9RmVqiigJqbIK-126" style="edgeStyle=orthogonalEdgeStyle;rounded=0;orthogonalLoop=1;jettySize=auto;html=1;exitX=0;exitY=0.227;exitDx=0;exitDy=0;exitPerimeter=0;entryX=1.009;entryY=0.092;entryDx=0;entryDy=0;entryPerimeter=0;" parent="1" source="7h5jGF_3rGkxscpFPyfr-1" target="3MDlPkKo6m4XxgB9dood-12" edge="1">
          <mxGeometry relative="1" as="geometry">
            <mxPoint x="-1180" y="-1140" as="targetPoint" />
          </mxGeometry>
        </mxCell>
        <mxCell id="26-_QEdhsg3uctZ_GNh8-77" value="add attendance" style="edgeLabel;html=1;align=center;verticalAlign=middle;resizable=0;points=[];" parent="S4vICWb9RmVqiigJqbIK-126" vertex="1" connectable="0">
          <mxGeometry x="0.3032" y="-2" relative="1" as="geometry">
            <mxPoint x="31" as="offset" />
          </mxGeometry>
        </mxCell>
        <mxCell id="S4vICWb9RmVqiigJqbIK-157" style="edgeStyle=orthogonalEdgeStyle;rounded=0;orthogonalLoop=1;jettySize=auto;html=1;exitX=0;exitY=0.339;exitDx=0;exitDy=0;exitPerimeter=0;startArrow=none;entryX=1.003;entryY=0.386;entryDx=0;entryDy=0;entryPerimeter=0;" parent="1" target="S4vICWb9RmVqiigJqbIK-102" edge="1">
          <mxGeometry relative="1" as="geometry">
            <Array as="points" />
            <mxPoint x="-1183.188000000001" y="-499.84100000000035" as="targetPoint" />
            <mxPoint x="-730" y="-490.2800000000002" as="sourcePoint" />
          </mxGeometry>
        </mxCell>
        <mxCell id="26-_QEdhsg3uctZ_GNh8-38" value="edit request" style="edgeLabel;html=1;align=center;verticalAlign=middle;resizable=0;points=[];" parent="S4vICWb9RmVqiigJqbIK-157" vertex="1" connectable="0">
          <mxGeometry x="0.4189" y="-1" relative="1" as="geometry">
            <mxPoint x="89" as="offset" />
          </mxGeometry>
        </mxCell>
        <mxCell id="0ljqsSJ8jaWwJzg_Dv9j-2" style="edgeStyle=orthogonalEdgeStyle;rounded=0;orthogonalLoop=1;jettySize=auto;html=1;exitX=0.278;exitY=0.001;exitDx=0;exitDy=0;fillColor=#f8cecc;strokeColor=#b85450;exitPerimeter=0;" parent="1" source="7h5jGF_3rGkxscpFPyfr-1" target="S4vICWb9RmVqiigJqbIK-43" edge="1">
          <mxGeometry relative="1" as="geometry">
            <Array as="points">
              <mxPoint x="-810" y="-1850" />
              <mxPoint x="-2430" y="-1850" />
            </Array>
          </mxGeometry>
        </mxCell>
        <mxCell id="0lx7O1DaO86i4mrOHPQD-2" value="request login" style="edgeLabel;html=1;align=center;verticalAlign=middle;resizable=0;points=[];" parent="0ljqsSJ8jaWwJzg_Dv9j-2" vertex="1" connectable="0">
          <mxGeometry x="0.6705" y="2" relative="1" as="geometry">
            <mxPoint x="76" as="offset" />
          </mxGeometry>
        </mxCell>
        <mxCell id="dtbD8rRxmauY1tutwqU4-5" style="edgeStyle=orthogonalEdgeStyle;rounded=0;orthogonalLoop=1;jettySize=auto;html=1;exitX=0.139;exitY=0.001;exitDx=0;exitDy=0;strokeColor=#FF051E;exitPerimeter=0;" parent="1" source="7h5jGF_3rGkxscpFPyfr-1" target="dtbD8rRxmauY1tutwqU4-4" edge="1">
          <mxGeometry relative="1" as="geometry">
            <Array as="points">
              <mxPoint x="-910" y="-1640" />
            </Array>
          </mxGeometry>
        </mxCell>
        <mxCell id="dtbD8rRxmauY1tutwqU4-6" value="edit order" style="edgeLabel;html=1;align=center;verticalAlign=middle;resizable=0;points=[];rotation=90;" parent="dtbD8rRxmauY1tutwqU4-5" vertex="1" connectable="0">
          <mxGeometry x="-0.134" y="-1" relative="1" as="geometry">
            <mxPoint y="-1" as="offset" />
          </mxGeometry>
        </mxCell>
        <mxCell id="wQDentvwODpDM7mI2al0-5" style="edgeStyle=orthogonalEdgeStyle;rounded=0;orthogonalLoop=1;jettySize=auto;html=1;exitX=0.195;exitY=-0.001;exitDx=0;exitDy=0;strokeColor=#FF051E;entryX=1;entryY=0.25;entryDx=0;entryDy=0;exitPerimeter=0;" parent="1" source="7h5jGF_3rGkxscpFPyfr-1" target="dtbD8rRxmauY1tutwqU4-4" edge="1">
          <mxGeometry relative="1" as="geometry">
            <mxPoint x="-1090" y="-1570" as="targetPoint" />
            <Array as="points">
              <mxPoint x="-870" y="-1680" />
            </Array>
          </mxGeometry>
        </mxCell>
        <mxCell id="wQDentvwODpDM7mI2al0-6" value="confirm slip" style="edgeLabel;html=1;align=center;verticalAlign=middle;resizable=0;points=[];rotation=90;" parent="wQDentvwODpDM7mI2al0-5" vertex="1" connectable="0">
          <mxGeometry x="0.1045" y="2" relative="1" as="geometry">
            <mxPoint y="11" as="offset" />
          </mxGeometry>
        </mxCell>
        <mxCell id="7h5jGF_3rGkxscpFPyfr-1" value="employee" style="whiteSpace=wrap;html=1;align=center;fontSize=20;" parent="1" vertex="1">
          <mxGeometry x="-1010" y="-1250" width="720" height="480" as="geometry" />
        </mxCell>
        <mxCell id="S4vICWb9RmVqiigJqbIK-176" style="edgeStyle=orthogonalEdgeStyle;rounded=0;orthogonalLoop=1;jettySize=auto;html=1;exitX=-0.001;exitY=0.465;exitDx=0;exitDy=0;startArrow=none;startFill=0;endArrow=classic;endFill=1;exitPerimeter=0;" parent="1" source="-Wf0UNa4JU4qSRJhT9cN-1" target="S4vICWb9RmVqiigJqbIK-49" edge="1">
          <mxGeometry relative="1" as="geometry">
            <Array as="points">
              <mxPoint x="-1890" y="-600" />
              <mxPoint x="-1890" y="-1370" />
              <mxPoint x="-1470" y="-1370" />
            </Array>
          </mxGeometry>
        </mxCell>
        <mxCell id="3MDlPkKo6m4XxgB9dood-7" style="edgeStyle=orthogonalEdgeStyle;rounded=0;orthogonalLoop=1;jettySize=auto;html=1;exitX=1;exitY=1;exitDx=0;exitDy=0;entryX=0;entryY=0.333;entryDx=0;entryDy=0;strokeColor=#FF051E;entryPerimeter=0;" parent="1" source="-Wf0UNa4JU4qSRJhT9cN-1" target="S4vICWb9RmVqiigJqbIK-102" edge="1">
          <mxGeometry relative="1" as="geometry">
            <mxPoint x="-1371" y="-557" as="targetPoint" />
            <Array as="points">
              <mxPoint x="-1610" y="-566" />
              <mxPoint x="-1610" y="-520" />
            </Array>
          </mxGeometry>
        </mxCell>
        <mxCell id="hAjxdzmbSJRspTWeA_u0-10" value="comission info" style="edgeLabel;html=1;align=center;verticalAlign=middle;resizable=0;points=[];" parent="3MDlPkKo6m4XxgB9dood-7" vertex="1" connectable="0">
          <mxGeometry x="-0.2599" y="4" relative="1" as="geometry">
            <mxPoint x="149" y="3" as="offset" />
          </mxGeometry>
        </mxCell>
        <mxCell id="-Wf0UNa4JU4qSRJhT9cN-1" value="&amp;nbsp;G&amp;nbsp; comission info" style="html=1;dashed=0;whitespace=wrap;shape=mxgraph.dfd.dataStoreID;align=left;spacingLeft=3;points=[[0,0],[0.5,0],[1,0],[0,0.5],[1,0.5],[0,1],[0.5,1],[1,1]];fontSize=20;" parent="1" vertex="1">
          <mxGeometry x="-1757" y="-630" width="230" height="64" as="geometry" />
        </mxCell>
        <mxCell id="S4vICWb9RmVqiigJqbIK-175" style="edgeStyle=orthogonalEdgeStyle;rounded=0;orthogonalLoop=1;jettySize=auto;html=1;startArrow=none;startFill=0;endArrow=classic;endFill=1;entryX=0.328;entryY=1.011;entryDx=0;entryDy=0;entryPerimeter=0;exitX=0.001;exitY=0.547;exitDx=0;exitDy=0;exitPerimeter=0;" parent="1" source="ToerUvIUihToS5gZ5FDm-1" target="S4vICWb9RmVqiigJqbIK-49" edge="1">
          <mxGeometry relative="1" as="geometry">
            <mxPoint x="-1757" y="-450" as="sourcePoint" />
            <mxPoint x="-1490" y="-1580" as="targetPoint" />
            <Array as="points">
              <mxPoint x="-1910" y="-475" />
              <mxPoint x="-1910" y="-1390" />
              <mxPoint x="-1490" y="-1390" />
            </Array>
          </mxGeometry>
        </mxCell>
        <mxCell id="26-_QEdhsg3uctZ_GNh8-35" value="promotion info" style="edgeLabel;html=1;align=center;verticalAlign=middle;resizable=0;points=[];" parent="S4vICWb9RmVqiigJqbIK-175" vertex="1" connectable="0">
          <mxGeometry x="-0.9006" y="-3" relative="1" as="geometry">
            <mxPoint x="14" y="3" as="offset" />
          </mxGeometry>
        </mxCell>
        <mxCell id="dXFZXRa_yULJPOTt_srA-13" style="edgeStyle=orthogonalEdgeStyle;rounded=0;orthogonalLoop=1;jettySize=auto;html=1;" parent="1" edge="1">
          <mxGeometry relative="1" as="geometry">
            <mxPoint x="-2450" y="-530" as="targetPoint" />
            <Array as="points">
              <mxPoint x="-1690" y="-475" />
              <mxPoint x="-1690" y="-530" />
            </Array>
            <mxPoint x="-1690" y="-480" as="sourcePoint" />
          </mxGeometry>
        </mxCell>
        <mxCell id="26-_QEdhsg3uctZ_GNh8-27" value="promotion info" style="edgeLabel;html=1;align=center;verticalAlign=middle;resizable=0;points=[];" parent="dXFZXRa_yULJPOTt_srA-13" vertex="1" connectable="0">
          <mxGeometry x="0.1914" y="-3" relative="1" as="geometry">
            <mxPoint x="-12" as="offset" />
          </mxGeometry>
        </mxCell>
        <mxCell id="3MDlPkKo6m4XxgB9dood-8" style="edgeStyle=orthogonalEdgeStyle;rounded=0;orthogonalLoop=1;jettySize=auto;html=1;exitX=0.641;exitY=0.994;exitDx=0;exitDy=0;strokeColor=#FF051E;exitPerimeter=0;" parent="1" source="ToerUvIUihToS5gZ5FDm-1" target="S4vICWb9RmVqiigJqbIK-102" edge="1">
          <mxGeometry relative="1" as="geometry">
            <mxPoint x="-1369" y="-375.25" as="targetPoint" />
            <Array as="points">
              <mxPoint x="-1610" y="-400" />
            </Array>
          </mxGeometry>
        </mxCell>
        <mxCell id="hAjxdzmbSJRspTWeA_u0-11" value="promotion info" style="edgeLabel;html=1;align=center;verticalAlign=middle;resizable=0;points=[];" parent="3MDlPkKo6m4XxgB9dood-8" vertex="1" connectable="0">
          <mxGeometry x="-0.0898" y="7" relative="1" as="geometry">
            <mxPoint x="71" y="7" as="offset" />
          </mxGeometry>
        </mxCell>
        <mxCell id="ToerUvIUihToS5gZ5FDm-1" value="&amp;nbsp;H&amp;nbsp; promotion info" style="html=1;dashed=0;whitespace=wrap;shape=mxgraph.dfd.dataStoreID;align=left;spacingLeft=3;points=[[0,0],[0.5,0],[1,0],[0,0.5],[1,0.5],[0,1],[0.5,1],[1,1]];fontSize=20;" parent="1" vertex="1">
          <mxGeometry x="-1757" y="-510" width="230" height="64" as="geometry" />
        </mxCell>
        <mxCell id="S4vICWb9RmVqiigJqbIK-174" style="edgeStyle=orthogonalEdgeStyle;rounded=0;orthogonalLoop=1;jettySize=auto;html=1;exitX=0;exitY=0.468;exitDx=0;exitDy=0;entryX=0.201;entryY=1.01;entryDx=0;entryDy=0;startArrow=none;startFill=0;endArrow=classic;endFill=1;entryPerimeter=0;exitPerimeter=0;" parent="1" source="lDOKuMuyD6le_Ei1dL40-1" target="S4vICWb9RmVqiigJqbIK-49" edge="1">
          <mxGeometry relative="1" as="geometry">
            <Array as="points">
              <mxPoint x="-1930" y="-360" />
              <mxPoint x="-1930" y="-1410" />
              <mxPoint x="-1511" y="-1410" />
            </Array>
          </mxGeometry>
        </mxCell>
        <mxCell id="26-_QEdhsg3uctZ_GNh8-36" value="service info" style="edgeLabel;html=1;align=center;verticalAlign=middle;resizable=0;points=[];" parent="S4vICWb9RmVqiigJqbIK-174" vertex="1" connectable="0">
          <mxGeometry x="-0.9033" y="3" relative="1" as="geometry">
            <mxPoint x="10" y="-6" as="offset" />
          </mxGeometry>
        </mxCell>
        <mxCell id="dXFZXRa_yULJPOTt_srA-14" style="edgeStyle=orthogonalEdgeStyle;rounded=0;orthogonalLoop=1;jettySize=auto;html=1;" parent="1" source="lDOKuMuyD6le_Ei1dL40-1" edge="1">
          <mxGeometry relative="1" as="geometry">
            <Array as="points">
              <mxPoint x="-1690" y="-410" />
              <mxPoint x="-2250" y="-410" />
              <mxPoint x="-2250" y="-510" />
            </Array>
            <mxPoint x="-1690" y="-320" as="sourcePoint" />
            <mxPoint x="-2450" y="-510" as="targetPoint" />
          </mxGeometry>
        </mxCell>
        <mxCell id="26-_QEdhsg3uctZ_GNh8-28" value="service info" style="edgeLabel;html=1;align=center;verticalAlign=middle;resizable=0;points=[];" parent="dXFZXRa_yULJPOTt_srA-14" vertex="1" connectable="0">
          <mxGeometry x="-0.041" y="-3" relative="1" as="geometry">
            <mxPoint x="-38" y="2" as="offset" />
          </mxGeometry>
        </mxCell>
        <mxCell id="3MDlPkKo6m4XxgB9dood-9" style="edgeStyle=orthogonalEdgeStyle;rounded=0;orthogonalLoop=1;jettySize=auto;html=1;exitX=1;exitY=1;exitDx=0;exitDy=0;strokeColor=#FF051E;entryX=0;entryY=0.751;entryDx=0;entryDy=0;entryPerimeter=0;" parent="1" source="lDOKuMuyD6le_Ei1dL40-1" target="S4vICWb9RmVqiigJqbIK-102" edge="1">
          <mxGeometry relative="1" as="geometry">
            <mxPoint x="-1371" y="-237" as="targetPoint" />
            <Array as="points">
              <mxPoint x="-1610" y="-326" />
              <mxPoint x="-1610" y="-282" />
              <mxPoint x="-1371" y="-282" />
            </Array>
          </mxGeometry>
        </mxCell>
        <mxCell id="hAjxdzmbSJRspTWeA_u0-12" value="services info" style="edgeLabel;html=1;align=center;verticalAlign=middle;resizable=0;points=[];" parent="3MDlPkKo6m4XxgB9dood-9" vertex="1" connectable="0">
          <mxGeometry x="-0.3514" y="3" relative="1" as="geometry">
            <mxPoint x="157" y="5" as="offset" />
          </mxGeometry>
        </mxCell>
        <mxCell id="lDOKuMuyD6le_Ei1dL40-1" value="&amp;nbsp;J&amp;nbsp; &amp;nbsp;services info" style="html=1;dashed=0;whitespace=wrap;shape=mxgraph.dfd.dataStoreID;align=left;spacingLeft=3;points=[[0,0],[0.5,0],[1,0],[0,0.5],[1,0.5],[0,1],[0.5,1],[1,1]];fontSize=20;" parent="1" vertex="1">
          <mxGeometry x="-1757" y="-390" width="230" height="64" as="geometry" />
        </mxCell>
        <mxCell id="dXFZXRa_yULJPOTt_srA-15" style="edgeStyle=orthogonalEdgeStyle;rounded=0;orthogonalLoop=1;jettySize=auto;html=1;exitX=0.288;exitY=-0.004;exitDx=0;exitDy=0;entryX=1.009;entryY=0.692;entryDx=0;entryDy=0;entryPerimeter=0;exitPerimeter=0;" parent="1" source="O0DZx0-W63CPv14JqbIX-1" target="dXFZXRa_yULJPOTt_srA-4" edge="1">
          <mxGeometry relative="1" as="geometry">
            <Array as="points">
              <mxPoint x="-1691" y="-290" />
              <mxPoint x="-2270" y="-290" />
              <mxPoint x="-2270" y="-490" />
            </Array>
          </mxGeometry>
        </mxCell>
        <mxCell id="26-_QEdhsg3uctZ_GNh8-29" value="package info" style="edgeLabel;html=1;align=center;verticalAlign=middle;resizable=0;points=[];" parent="dXFZXRa_yULJPOTt_srA-15" vertex="1" connectable="0">
          <mxGeometry x="-0.0935" y="2" relative="1" as="geometry">
            <mxPoint x="-1" as="offset" />
          </mxGeometry>
        </mxCell>
        <mxCell id="3MDlPkKo6m4XxgB9dood-10" style="edgeStyle=orthogonalEdgeStyle;rounded=0;orthogonalLoop=1;jettySize=auto;html=1;exitX=1;exitY=1;exitDx=0;exitDy=0;strokeColor=#FF051E;" parent="1" source="O0DZx0-W63CPv14JqbIX-1" target="S4vICWb9RmVqiigJqbIK-102" edge="1">
          <mxGeometry relative="1" as="geometry">
            <mxPoint x="-1277" y="-150" as="targetPoint" />
            <Array as="points">
              <mxPoint x="-1610" y="-206" />
              <mxPoint x="-1610" y="-160" />
            </Array>
          </mxGeometry>
        </mxCell>
        <mxCell id="hAjxdzmbSJRspTWeA_u0-13" value="package info" style="edgeLabel;html=1;align=center;verticalAlign=middle;resizable=0;points=[];" parent="3MDlPkKo6m4XxgB9dood-10" vertex="1" connectable="0">
          <mxGeometry x="-0.4237" y="8" relative="1" as="geometry">
            <mxPoint x="153" y="20" as="offset" />
          </mxGeometry>
        </mxCell>
        <mxCell id="O0DZx0-W63CPv14JqbIX-1" value="&amp;nbsp;I&amp;nbsp; &amp;nbsp;package info" style="html=1;dashed=0;whitespace=wrap;shape=mxgraph.dfd.dataStoreID;align=left;spacingLeft=3;points=[[0,0],[0.5,0],[1,0],[0,0.5],[1,0.5],[0,1],[0.5,1],[1,1]];fontSize=20;" parent="1" vertex="1">
          <mxGeometry x="-1757" y="-270" width="230" height="64" as="geometry" />
        </mxCell>
        <mxCell id="S4vICWb9RmVqiigJqbIK-29" style="edgeStyle=orthogonalEdgeStyle;rounded=0;orthogonalLoop=1;jettySize=auto;html=1;exitX=0.5;exitY=1;exitDx=0;exitDy=0;" parent="1" target="S4vICWb9RmVqiigJqbIK-44" edge="1">
          <mxGeometry relative="1" as="geometry">
            <mxPoint x="-2370" y="-1648.9749999999997" as="targetPoint" />
            <Array as="points">
              <mxPoint x="-2290" y="-1650" />
            </Array>
            <mxPoint x="-2290.1600000000003" y="-1759.9999999999998" as="sourcePoint" />
          </mxGeometry>
        </mxCell>
        <mxCell id="26-_QEdhsg3uctZ_GNh8-19" value="data user" style="edgeLabel;html=1;align=center;verticalAlign=middle;resizable=0;points=[];rotation=90;" parent="S4vICWb9RmVqiigJqbIK-29" vertex="1" connectable="0">
          <mxGeometry x="0.4158" y="-1" relative="1" as="geometry">
            <mxPoint x="25" y="-59" as="offset" />
          </mxGeometry>
        </mxCell>
        <mxCell id="S4vICWb9RmVqiigJqbIK-1" value="firebase authentication" style="whiteSpace=wrap;html=1;align=center;fontSize=20;" parent="1" vertex="1">
          <mxGeometry x="-2370" y="-1813" width="160" height="53" as="geometry" />
        </mxCell>
        <mxCell id="S4vICWb9RmVqiigJqbIK-32" style="edgeStyle=orthogonalEdgeStyle;rounded=0;orthogonalLoop=1;jettySize=auto;html=1;exitX=0.155;exitY=0.983;exitDx=0;exitDy=0;exitPerimeter=0;" parent="1" source="S4vICWb9RmVqiigJqbIK-6" edge="1">
          <mxGeometry relative="1" as="geometry">
            <mxPoint x="-2370" y="-1610" as="targetPoint" />
            <Array as="points">
              <mxPoint x="-2019" y="-1610" />
            </Array>
          </mxGeometry>
        </mxCell>
        <mxCell id="26-_QEdhsg3uctZ_GNh8-9" value="customer info(match id)" style="edgeLabel;html=1;align=center;verticalAlign=middle;resizable=0;points=[];" parent="S4vICWb9RmVqiigJqbIK-32" vertex="1" connectable="0">
          <mxGeometry x="0.3767" y="-3" relative="1" as="geometry">
            <mxPoint as="offset" />
          </mxGeometry>
        </mxCell>
        <mxCell id="S4vICWb9RmVqiigJqbIK-52" style="edgeStyle=orthogonalEdgeStyle;rounded=0;orthogonalLoop=1;jettySize=auto;html=1;exitX=0.709;exitY=0;exitDx=0;exitDy=0;entryX=0.206;entryY=-0.007;entryDx=0;entryDy=0;exitPerimeter=0;entryPerimeter=0;" parent="1" source="S4vICWb9RmVqiigJqbIK-6" target="S4vICWb9RmVqiigJqbIK-48" edge="1">
          <mxGeometry relative="1" as="geometry">
            <Array as="points">
              <mxPoint x="-1910" y="-1810" />
              <mxPoint x="-1510" y="-1810" />
            </Array>
          </mxGeometry>
        </mxCell>
        <mxCell id="26-_QEdhsg3uctZ_GNh8-33" value="customer info" style="edgeLabel;html=1;align=center;verticalAlign=middle;resizable=0;points=[];" parent="S4vICWb9RmVqiigJqbIK-52" vertex="1" connectable="0">
          <mxGeometry x="-0.2241" y="-3" relative="1" as="geometry">
            <mxPoint x="27" y="-3" as="offset" />
          </mxGeometry>
        </mxCell>
        <mxCell id="dtbD8rRxmauY1tutwqU4-18" style="edgeStyle=orthogonalEdgeStyle;rounded=0;orthogonalLoop=1;jettySize=auto;html=1;strokeColor=#FF051E;entryX=1.006;entryY=0.322;entryDx=0;entryDy=0;entryPerimeter=0;exitX=0.607;exitY=0.004;exitDx=0;exitDy=0;exitPerimeter=0;" parent="1" source="S4vICWb9RmVqiigJqbIK-6" target="S4vICWb9RmVqiigJqbIK-66" edge="1">
          <mxGeometry relative="1" as="geometry">
            <Array as="points">
              <mxPoint x="-1930" y="-1780" />
              <mxPoint x="-1930" y="-2149" />
            </Array>
            <mxPoint x="-1850" y="-1780" as="sourcePoint" />
          </mxGeometry>
        </mxCell>
        <mxCell id="dtbD8rRxmauY1tutwqU4-19" value="customer info" style="edgeLabel;html=1;align=center;verticalAlign=middle;resizable=0;points=[];rotation=90;" parent="dtbD8rRxmauY1tutwqU4-18" vertex="1" connectable="0">
          <mxGeometry x="0.514" y="6" relative="1" as="geometry">
            <mxPoint x="6" y="146" as="offset" />
          </mxGeometry>
        </mxCell>
        <mxCell id="S4vICWb9RmVqiigJqbIK-6" value="&amp;nbsp;A&amp;nbsp; customer information" style="html=1;dashed=0;whitespace=wrap;shape=mxgraph.dfd.dataStoreID;align=left;spacingLeft=3;points=[[0,0],[0.5,0],[1,0],[0,0.5],[1,0.5],[0,1],[0.5,1],[1,1]];fontSize=20;" parent="1" vertex="1">
          <mxGeometry x="-2050" y="-1771.5" width="198" height="51.5" as="geometry" />
        </mxCell>
        <mxCell id="S4vICWb9RmVqiigJqbIK-28" style="edgeStyle=orthogonalEdgeStyle;rounded=0;orthogonalLoop=1;jettySize=auto;html=1;exitX=1;exitY=0.25;exitDx=0;exitDy=0;fillColor=#f8cecc;strokeColor=#b85450;" parent="1" source="S4vICWb9RmVqiigJqbIK-43" target="S4vICWb9RmVqiigJqbIK-1" edge="1">
          <mxGeometry relative="1" as="geometry">
            <mxPoint x="-2370" y="-1583.25" as="sourcePoint" />
            <Array as="points">
              <mxPoint x="-2370" y="-1670" />
              <mxPoint x="-2310" y="-1670" />
            </Array>
          </mxGeometry>
        </mxCell>
        <mxCell id="1NZBIHwXVsQc4CvPOvai-1" value="request login" style="edgeLabel;html=1;align=center;verticalAlign=middle;resizable=0;points=[];rotation=90;" parent="S4vICWb9RmVqiigJqbIK-28" vertex="1" connectable="0">
          <mxGeometry x="-0.2662" y="2" relative="1" as="geometry">
            <mxPoint x="12" y="-38" as="offset" />
          </mxGeometry>
        </mxCell>
        <mxCell id="S4vICWb9RmVqiigJqbIK-31" style="edgeStyle=orthogonalEdgeStyle;rounded=0;orthogonalLoop=1;jettySize=auto;html=1;exitX=1;exitY=0.5;exitDx=0;exitDy=0;" parent="1" source="S4vICWb9RmVqiigJqbIK-44" edge="1">
          <mxGeometry relative="1" as="geometry">
            <mxPoint x="-2410" y="-1539.5" as="sourcePoint" />
            <mxPoint x="-2040" y="-1720" as="targetPoint" />
            <Array as="points">
              <mxPoint x="-2370" y="-1630" />
              <mxPoint x="-2040" y="-1630" />
              <mxPoint x="-2040" y="-1718" />
            </Array>
          </mxGeometry>
        </mxCell>
        <mxCell id="26-_QEdhsg3uctZ_GNh8-8" value="request customer info(social id)" style="edgeLabel;html=1;align=center;verticalAlign=middle;resizable=0;points=[];" parent="S4vICWb9RmVqiigJqbIK-31" vertex="1" connectable="0">
          <mxGeometry x="-0.2578" y="4" relative="1" as="geometry">
            <mxPoint as="offset" />
          </mxGeometry>
        </mxCell>
        <mxCell id="S4vICWb9RmVqiigJqbIK-36" style="edgeStyle=orthogonalEdgeStyle;rounded=0;orthogonalLoop=1;jettySize=auto;html=1;exitX=0.374;exitY=1.004;exitDx=0;exitDy=0;entryX=0.75;entryY=0;entryDx=0;entryDy=0;exitPerimeter=0;" parent="1" source="S4vICWb9RmVqiigJqbIK-44" target="S4vICWb9RmVqiigJqbIK-98" edge="1">
          <mxGeometry relative="1" as="geometry">
            <mxPoint x="-2490" y="-1497" as="sourcePoint" />
            <mxPoint x="-2460.8" y="-1220.48" as="targetPoint" />
          </mxGeometry>
        </mxCell>
        <mxCell id="26-_QEdhsg3uctZ_GNh8-7" value="confirm login" style="edgeLabel;html=1;align=center;verticalAlign=middle;resizable=0;points=[];rotation=90;" parent="S4vICWb9RmVqiigJqbIK-36" vertex="1" connectable="0">
          <mxGeometry x="-0.22" y="1" relative="1" as="geometry">
            <mxPoint as="offset" />
          </mxGeometry>
        </mxCell>
        <mxCell id="S4vICWb9RmVqiigJqbIK-38" value="3.0" style="swimlane;childLayout=stackLayout;horizontal=1;startSize=30;horizontalStack=0;rounded=1;fontSize=14;fontStyle=0;strokeWidth=2;resizeParent=0;resizeLast=1;shadow=0;dashed=0;align=center;fillColor=#dae8fc;strokeColor=#6c8ebf;" parent="1" vertex="1">
          <mxGeometry x="-2290" y="-1420" width="174" height="117" as="geometry" />
        </mxCell>
        <mxCell id="S4vICWb9RmVqiigJqbIK-39" value="buy service" style="align=center;strokeColor=none;fillColor=none;spacingLeft=4;fontSize=20;verticalAlign=middle;resizable=0;rotatable=0;part=1;" parent="S4vICWb9RmVqiigJqbIK-38" vertex="1">
          <mxGeometry y="30" width="174" height="87" as="geometry" />
        </mxCell>
        <mxCell id="0ljqsSJ8jaWwJzg_Dv9j-3" style="edgeStyle=orthogonalEdgeStyle;rounded=0;orthogonalLoop=1;jettySize=auto;html=1;exitX=0.5;exitY=0;exitDx=0;exitDy=0;fillColor=#f8cecc;strokeColor=#b85450;" parent="1" source="S4vICWb9RmVqiigJqbIK-43" edge="1">
          <mxGeometry relative="1" as="geometry">
            <Array as="points">
              <mxPoint x="-2450" y="-1870" />
              <mxPoint x="-790" y="-1870" />
            </Array>
            <mxPoint x="-790" y="-1250" as="targetPoint" />
          </mxGeometry>
        </mxCell>
        <mxCell id="0lx7O1DaO86i4mrOHPQD-3" value="login success" style="edgeLabel;html=1;align=center;verticalAlign=middle;resizable=0;points=[];" parent="0ljqsSJ8jaWwJzg_Dv9j-3" vertex="1" connectable="0">
          <mxGeometry x="-0.604" y="1" relative="1" as="geometry">
            <mxPoint as="offset" />
          </mxGeometry>
        </mxCell>
        <mxCell id="0ljqsSJ8jaWwJzg_Dv9j-4" style="edgeStyle=orthogonalEdgeStyle;rounded=0;orthogonalLoop=1;jettySize=auto;html=1;exitX=0.372;exitY=-0.009;exitDx=0;exitDy=0;fillColor=#f8cecc;strokeColor=#b85450;exitPerimeter=0;" parent="1" source="S4vICWb9RmVqiigJqbIK-43" edge="1">
          <mxGeometry relative="1" as="geometry">
            <Array as="points">
              <mxPoint x="-2470" y="-2050" />
              <mxPoint x="-930" y="-2050" />
              <mxPoint x="-930" y="-2010" />
            </Array>
            <mxPoint x="-930" y="-2010" as="targetPoint" />
          </mxGeometry>
        </mxCell>
        <mxCell id="0lx7O1DaO86i4mrOHPQD-1" value="login success" style="edgeLabel;html=1;align=center;verticalAlign=middle;resizable=0;points=[];" parent="0ljqsSJ8jaWwJzg_Dv9j-4" vertex="1" connectable="0">
          <mxGeometry x="-0.1503" y="3" relative="1" as="geometry">
            <mxPoint x="884" as="offset" />
          </mxGeometry>
        </mxCell>
        <mxCell id="S4vICWb9RmVqiigJqbIK-43" value="1.0" style="swimlane;childLayout=stackLayout;horizontal=1;startSize=30;horizontalStack=0;rounded=1;fontSize=14;fontStyle=0;strokeWidth=2;resizeParent=0;resizeLast=1;shadow=0;dashed=0;align=center;fillColor=#d5e8d4;strokeColor=#82b366;" parent="1" vertex="1">
          <mxGeometry x="-2530" y="-1710" width="160" height="115" as="geometry" />
        </mxCell>
        <mxCell id="S4vICWb9RmVqiigJqbIK-44" value="login" style="align=center;strokeColor=none;fillColor=none;spacingLeft=4;fontSize=20;verticalAlign=middle;resizable=0;rotatable=0;part=1;" parent="S4vICWb9RmVqiigJqbIK-43" vertex="1">
          <mxGeometry y="30" width="160" height="85" as="geometry" />
        </mxCell>
        <mxCell id="S4vICWb9RmVqiigJqbIK-45" style="edgeStyle=orthogonalEdgeStyle;rounded=0;orthogonalLoop=1;jettySize=auto;html=1;exitX=0.621;exitY=1.009;exitDx=0;exitDy=0;exitPerimeter=0;" parent="1" source="S4vICWb9RmVqiigJqbIK-44" edge="1">
          <mxGeometry relative="1" as="geometry">
            <mxPoint x="-2290" y="-1370" as="targetPoint" />
            <Array as="points">
              <mxPoint x="-2431" y="-1370" />
              <mxPoint x="-2290" y="-1370" />
            </Array>
          </mxGeometry>
        </mxCell>
        <mxCell id="26-_QEdhsg3uctZ_GNh8-32" value="login success" style="edgeLabel;html=1;align=center;verticalAlign=middle;resizable=0;points=[];" parent="S4vICWb9RmVqiigJqbIK-45" vertex="1" connectable="0">
          <mxGeometry x="0.151" y="3" relative="1" as="geometry">
            <mxPoint x="68" y="14" as="offset" />
          </mxGeometry>
        </mxCell>
        <mxCell id="S4vICWb9RmVqiigJqbIK-46" style="edgeStyle=orthogonalEdgeStyle;rounded=0;orthogonalLoop=1;jettySize=auto;html=1;" parent="1" target="S4vICWb9RmVqiigJqbIK-98" edge="1">
          <mxGeometry relative="1" as="geometry">
            <mxPoint x="-2369.7200000000003" y="-1220.48" as="targetPoint" />
            <mxPoint x="-2290" y="-1330" as="sourcePoint" />
            <Array as="points">
              <mxPoint x="-2290" y="-1330" />
              <mxPoint x="-2410" y="-1330" />
            </Array>
          </mxGeometry>
        </mxCell>
        <mxCell id="26-_QEdhsg3uctZ_GNh8-10" value="confirm buy" style="edgeLabel;html=1;align=center;verticalAlign=middle;resizable=0;points=[];rotation=0;" parent="S4vICWb9RmVqiigJqbIK-46" vertex="1" connectable="0">
          <mxGeometry x="-0.0229" y="-3" relative="1" as="geometry">
            <mxPoint x="27" y="3" as="offset" />
          </mxGeometry>
        </mxCell>
        <mxCell id="S4vICWb9RmVqiigJqbIK-54" style="edgeStyle=orthogonalEdgeStyle;rounded=0;orthogonalLoop=1;jettySize=auto;html=1;exitX=0.002;exitY=0.622;exitDx=0;exitDy=0;exitPerimeter=0;" parent="1" source="S4vICWb9RmVqiigJqbIK-49" target="S4vICWb9RmVqiigJqbIK-98" edge="1">
          <mxGeometry relative="1" as="geometry">
            <mxPoint x="-2290" y="-1010" as="targetPoint" />
            <Array as="points">
              <mxPoint x="-1960" y="-1650" />
              <mxPoint x="-1960" y="-1470" />
              <mxPoint x="-2010" y="-1470" />
              <mxPoint x="-2010" y="-930" />
            </Array>
          </mxGeometry>
        </mxCell>
        <mxCell id="26-_QEdhsg3uctZ_GNh8-26" value="confirm create order" style="edgeLabel;html=1;align=center;verticalAlign=middle;resizable=0;points=[];" parent="S4vICWb9RmVqiigJqbIK-54" vertex="1" connectable="0">
          <mxGeometry x="0.5605" y="1" relative="1" as="geometry">
            <mxPoint x="-151" y="39" as="offset" />
          </mxGeometry>
        </mxCell>
        <mxCell id="S4vICWb9RmVqiigJqbIK-96" style="edgeStyle=orthogonalEdgeStyle;rounded=0;orthogonalLoop=1;jettySize=auto;html=1;exitX=0.711;exitY=-0.005;exitDx=0;exitDy=0;exitPerimeter=0;fillColor=#f8cecc;strokeColor=#b85450;entryX=-0.002;entryY=0.419;entryDx=0;entryDy=0;entryPerimeter=0;" parent="1" source="S4vICWb9RmVqiigJqbIK-48" target="S4vICWb9RmVqiigJqbIK-94" edge="1">
          <mxGeometry relative="1" as="geometry">
            <mxPoint x="-1290" y="-1800" as="targetPoint" />
            <Array as="points">
              <mxPoint x="-1429" y="-1800" />
              <mxPoint x="-1290" y="-1800" />
            </Array>
          </mxGeometry>
        </mxCell>
        <mxCell id="1NZBIHwXVsQc4CvPOvai-2" value="message notify" style="edgeLabel;html=1;align=center;verticalAlign=middle;resizable=0;points=[];" parent="S4vICWb9RmVqiigJqbIK-96" vertex="1" connectable="0">
          <mxGeometry x="-0.0558" y="1" relative="1" as="geometry">
            <mxPoint x="22" y="1" as="offset" />
          </mxGeometry>
        </mxCell>
        <mxCell id="S4vICWb9RmVqiigJqbIK-48" value="4.0" style="swimlane;childLayout=stackLayout;horizontal=1;startSize=30;horizontalStack=0;rounded=1;fontSize=14;fontStyle=0;strokeWidth=2;resizeParent=0;resizeLast=1;shadow=0;dashed=0;align=center;fillColor=#dae8fc;strokeColor=#6c8ebf;" parent="1" vertex="1">
          <mxGeometry x="-1543" y="-1732.75" width="160" height="115" as="geometry" />
        </mxCell>
        <mxCell id="S4vICWb9RmVqiigJqbIK-49" value="make order" style="align=center;strokeColor=none;fillColor=none;spacingLeft=4;fontSize=20;verticalAlign=middle;resizable=0;rotatable=0;part=1;" parent="S4vICWb9RmVqiigJqbIK-48" vertex="1">
          <mxGeometry y="30" width="160" height="85" as="geometry" />
        </mxCell>
        <mxCell id="S4vICWb9RmVqiigJqbIK-53" style="edgeStyle=orthogonalEdgeStyle;rounded=0;orthogonalLoop=1;jettySize=auto;html=1;exitX=1;exitY=0.25;exitDx=0;exitDy=0;strokeColor=#FF051E;" parent="1" source="S4vICWb9RmVqiigJqbIK-98" target="S4vICWb9RmVqiigJqbIK-49" edge="1">
          <mxGeometry relative="1" as="geometry">
            <mxPoint x="-2130" y="-1440" as="sourcePoint" />
            <Array as="points">
              <mxPoint x="-2290" y="-1010" />
              <mxPoint x="-2030" y="-1010" />
              <mxPoint x="-2030" y="-1490" />
              <mxPoint x="-1980" y="-1490" />
              <mxPoint x="-1980" y="-1670" />
            </Array>
          </mxGeometry>
        </mxCell>
        <mxCell id="26-_QEdhsg3uctZ_GNh8-21" value="request create order" style="edgeLabel;html=1;align=center;verticalAlign=middle;resizable=0;points=[];" parent="S4vICWb9RmVqiigJqbIK-53" vertex="1" connectable="0">
          <mxGeometry x="-0.4862" y="3" relative="1" as="geometry">
            <mxPoint x="-117" y="13" as="offset" />
          </mxGeometry>
        </mxCell>
        <mxCell id="S4vICWb9RmVqiigJqbIK-65" value="6.0" style="swimlane;childLayout=stackLayout;horizontal=1;startSize=30;horizontalStack=0;rounded=1;fontSize=14;fontStyle=0;strokeWidth=2;resizeParent=0;resizeLast=1;shadow=0;dashed=0;align=center;fillColor=#f8cecc;strokeColor=#b85450;" parent="1" vertex="1">
          <mxGeometry x="-2250" y="-2207" width="230" height="117" as="geometry" />
        </mxCell>
        <mxCell id="S4vICWb9RmVqiigJqbIK-66" value="manage customer info" style="align=center;strokeColor=none;fillColor=none;spacingLeft=4;fontSize=20;verticalAlign=middle;resizable=0;rotatable=0;part=1;" parent="S4vICWb9RmVqiigJqbIK-65" vertex="1">
          <mxGeometry y="30" width="230" height="87" as="geometry" />
        </mxCell>
        <mxCell id="S4vICWb9RmVqiigJqbIK-85" style="edgeStyle=orthogonalEdgeStyle;rounded=0;orthogonalLoop=1;jettySize=auto;html=1;exitX=0;exitY=0.783;exitDx=0;exitDy=0;exitPerimeter=0;entryX=0.33;entryY=-0.008;entryDx=0;entryDy=0;entryPerimeter=0;" parent="1" source="S4vICWb9RmVqiigJqbIK-67" target="S4vICWb9RmVqiigJqbIK-48" edge="1">
          <mxGeometry relative="1" as="geometry">
            <mxPoint x="-1480" y="-1740" as="targetPoint" />
            <Array as="points">
              <mxPoint x="-1490" y="-1960" />
            </Array>
          </mxGeometry>
        </mxCell>
        <mxCell id="fY8Jnyo77yMWFTsGNpAv-3" value="employee info" style="edgeLabel;html=1;align=center;verticalAlign=middle;resizable=0;points=[];rotation=90;" parent="S4vICWb9RmVqiigJqbIK-85" vertex="1" connectable="0">
          <mxGeometry x="-0.6861" y="-3" relative="1" as="geometry">
            <mxPoint x="-32" y="168" as="offset" />
          </mxGeometry>
        </mxCell>
        <mxCell id="dtbD8rRxmauY1tutwqU4-20" style="edgeStyle=orthogonalEdgeStyle;rounded=0;orthogonalLoop=1;jettySize=auto;html=1;exitX=-0.002;exitY=0.149;exitDx=0;exitDy=0;entryX=0.001;entryY=0.54;entryDx=0;entryDy=0;strokeColor=#FF051E;exitPerimeter=0;entryPerimeter=0;" parent="1" source="S4vICWb9RmVqiigJqbIK-67" target="dtbD8rRxmauY1tutwqU4-23" edge="1">
          <mxGeometry relative="1" as="geometry">
            <Array as="points">
              <mxPoint x="-1470" y="-2000" />
              <mxPoint x="-1470" y="-2130" />
            </Array>
          </mxGeometry>
        </mxCell>
        <mxCell id="fY8Jnyo77yMWFTsGNpAv-1" value="empolyee&amp;nbsp; info" style="edgeLabel;html=1;align=center;verticalAlign=middle;resizable=0;points=[];" parent="dtbD8rRxmauY1tutwqU4-20" vertex="1" connectable="0">
          <mxGeometry x="0.4866" y="1" relative="1" as="geometry">
            <mxPoint x="22" as="offset" />
          </mxGeometry>
        </mxCell>
        <mxCell id="S4vICWb9RmVqiigJqbIK-67" value="&amp;nbsp;B&amp;nbsp; employee info" style="html=1;dashed=0;whitespace=wrap;shape=mxgraph.dfd.dataStoreID;align=left;spacingLeft=3;points=[[0,0],[0.5,0],[1,0],[0,0.5],[1,0.5],[0,1],[0.5,1],[1,1]];fontSize=20;" parent="1" vertex="1">
          <mxGeometry x="-1410" y="-2010" width="230" height="64" as="geometry" />
        </mxCell>
        <mxCell id="S4vICWb9RmVqiigJqbIK-70" style="edgeStyle=orthogonalEdgeStyle;rounded=0;orthogonalLoop=1;jettySize=auto;html=1;exitX=-0.002;exitY=0.533;exitDx=0;exitDy=0;exitPerimeter=0;entryX=0.554;entryY=-0.002;entryDx=0;entryDy=0;entryPerimeter=0;" parent="1" source="S4vICWb9RmVqiigJqbIK-66" target="S4vICWb9RmVqiigJqbIK-98" edge="1">
          <mxGeometry relative="1" as="geometry">
            <mxPoint x="-2610.0000000000005" y="-1220" as="targetPoint" />
            <Array as="points">
              <mxPoint x="-2610" y="-2131" />
              <mxPoint x="-2610" y="-1251" />
            </Array>
          </mxGeometry>
        </mxCell>
        <mxCell id="26-_QEdhsg3uctZ_GNh8-54" value="customer request success" style="edgeLabel;html=1;align=center;verticalAlign=middle;resizable=0;points=[];rotation=90;" parent="S4vICWb9RmVqiigJqbIK-70" vertex="1" connectable="0">
          <mxGeometry x="-0.3353" relative="1" as="geometry">
            <mxPoint y="48" as="offset" />
          </mxGeometry>
        </mxCell>
        <mxCell id="S4vICWb9RmVqiigJqbIK-71" style="edgeStyle=orthogonalEdgeStyle;rounded=0;orthogonalLoop=1;jettySize=auto;html=1;exitX=1;exitY=0.5;exitDx=0;exitDy=0;" parent="1" source="dtbD8rRxmauY1tutwqU4-23" edge="1">
          <mxGeometry relative="1" as="geometry">
            <mxPoint x="-470" y="-1250" as="targetPoint" />
            <Array as="points">
              <mxPoint x="-1106" y="-2130" />
              <mxPoint x="-470" y="-2130" />
            </Array>
          </mxGeometry>
        </mxCell>
        <mxCell id="26-_QEdhsg3uctZ_GNh8-56" value="employee request success" style="edgeLabel;html=1;align=center;verticalAlign=middle;resizable=0;points=[];" parent="S4vICWb9RmVqiigJqbIK-71" vertex="1" connectable="0">
          <mxGeometry x="-0.4417" y="2" relative="1" as="geometry">
            <mxPoint x="-148" y="2" as="offset" />
          </mxGeometry>
        </mxCell>
        <mxCell id="S4vICWb9RmVqiigJqbIK-80" style="edgeStyle=orthogonalEdgeStyle;rounded=0;orthogonalLoop=1;jettySize=auto;html=1;exitX=0.232;exitY=-0.008;exitDx=0;exitDy=0;exitPerimeter=0;" parent="1" source="S4vICWb9RmVqiigJqbIK-72" edge="1">
          <mxGeometry relative="1" as="geometry">
            <mxPoint x="-1210" y="-2010" as="targetPoint" />
            <Array as="points">
              <mxPoint x="-970" y="-2030" />
              <mxPoint x="-1210" y="-2030" />
            </Array>
          </mxGeometry>
        </mxCell>
        <mxCell id="26-_QEdhsg3uctZ_GNh8-57" value="new info" style="edgeLabel;html=1;align=center;verticalAlign=middle;resizable=0;points=[];" parent="S4vICWb9RmVqiigJqbIK-80" vertex="1" connectable="0">
          <mxGeometry x="0.025" relative="1" as="geometry">
            <mxPoint x="-16" as="offset" />
          </mxGeometry>
        </mxCell>
        <mxCell id="S4vICWb9RmVqiigJqbIK-72" value="8.0" style="swimlane;childLayout=stackLayout;horizontal=1;startSize=30;horizontalStack=0;rounded=1;fontSize=14;fontStyle=0;strokeWidth=2;resizeParent=0;resizeLast=1;shadow=0;dashed=0;align=center;fillColor=#f8cecc;strokeColor=#b85450;" parent="1" vertex="1">
          <mxGeometry x="-1010" y="-2010" width="172" height="115" as="geometry" />
        </mxCell>
        <mxCell id="S4vICWb9RmVqiigJqbIK-73" value="apply work" style="align=center;strokeColor=none;fillColor=none;spacingLeft=4;fontSize=20;verticalAlign=middle;resizable=0;rotatable=0;part=1;" parent="S4vICWb9RmVqiigJqbIK-72" vertex="1">
          <mxGeometry y="30" width="172" height="85" as="geometry" />
        </mxCell>
        <mxCell id="S4vICWb9RmVqiigJqbIK-77" style="edgeStyle=orthogonalEdgeStyle;rounded=0;orthogonalLoop=1;jettySize=auto;html=1;exitX=1;exitY=0.588;exitDx=0;exitDy=0;exitPerimeter=0;" parent="1" source="S4vICWb9RmVqiigJqbIK-73" edge="1">
          <mxGeometry relative="1" as="geometry">
            <mxPoint x="-570" y="-1250" as="targetPoint" />
            <Array as="points">
              <mxPoint x="-570" y="-1930" />
            </Array>
          </mxGeometry>
        </mxCell>
        <mxCell id="26-_QEdhsg3uctZ_GNh8-59" value="apply success" style="edgeLabel;html=1;align=center;verticalAlign=middle;resizable=0;points=[];rotation=90;" parent="S4vICWb9RmVqiigJqbIK-77" vertex="1" connectable="0">
          <mxGeometry x="-0.1565" y="-4" relative="1" as="geometry">
            <mxPoint x="9" y="23" as="offset" />
          </mxGeometry>
        </mxCell>
        <mxCell id="S4vICWb9RmVqiigJqbIK-84" style="edgeStyle=orthogonalEdgeStyle;rounded=0;orthogonalLoop=1;jettySize=auto;html=1;exitX=-0.003;exitY=0.306;exitDx=0;exitDy=0;exitPerimeter=0;" parent="1" source="dtbD8rRxmauY1tutwqU4-23" edge="1">
          <mxGeometry relative="1" as="geometry">
            <mxPoint x="-1530" y="-2090" as="sourcePoint" />
            <mxPoint x="-1410" y="-1980" as="targetPoint" />
            <Array as="points">
              <mxPoint x="-1490" y="-2150" />
              <mxPoint x="-1490" y="-1980" />
              <mxPoint x="-1410" y="-1980" />
            </Array>
          </mxGeometry>
        </mxCell>
        <mxCell id="26-_QEdhsg3uctZ_GNh8-52" value="employee new info" style="edgeLabel;html=1;align=center;verticalAlign=middle;resizable=0;points=[];" parent="S4vICWb9RmVqiigJqbIK-84" vertex="1" connectable="0">
          <mxGeometry x="-0.5598" y="-2" relative="1" as="geometry">
            <mxPoint x="18" y="-8" as="offset" />
          </mxGeometry>
        </mxCell>
        <mxCell id="S4vICWb9RmVqiigJqbIK-100" style="edgeStyle=orthogonalEdgeStyle;rounded=0;orthogonalLoop=1;jettySize=auto;html=1;exitX=0.298;exitY=-0.001;exitDx=0;exitDy=0;exitPerimeter=0;" parent="1" source="S4vICWb9RmVqiigJqbIK-93" target="S4vICWb9RmVqiigJqbIK-49" edge="1">
          <mxGeometry relative="1" as="geometry">
            <Array as="points">
              <mxPoint x="-1320" y="-1640" />
            </Array>
          </mxGeometry>
        </mxCell>
        <mxCell id="26-_QEdhsg3uctZ_GNh8-49" value="order detailt" style="edgeLabel;html=1;align=center;verticalAlign=middle;resizable=0;points=[];rotation=90;" parent="S4vICWb9RmVqiigJqbIK-100" vertex="1" connectable="0">
          <mxGeometry x="0.0826" y="1" relative="1" as="geometry">
            <mxPoint y="29" as="offset" />
          </mxGeometry>
        </mxCell>
        <mxCell id="S4vICWb9RmVqiigJqbIK-119" style="edgeStyle=orthogonalEdgeStyle;rounded=0;orthogonalLoop=1;jettySize=auto;html=1;exitX=-0.001;exitY=0.816;exitDx=0;exitDy=0;exitPerimeter=0;" parent="1" source="S4vICWb9RmVqiigJqbIK-93" target="S4vICWb9RmVqiigJqbIK-102" edge="1">
          <mxGeometry relative="1" as="geometry">
            <Array as="points">
              <mxPoint x="-1870" y="-1330" />
              <mxPoint x="-1870" y="-650" />
            </Array>
          </mxGeometry>
        </mxCell>
        <mxCell id="ZGsUAh8ebzoQAokVsqLj-3" value="commission info" style="edgeLabel;html=1;align=center;verticalAlign=middle;resizable=0;points=[];" parent="S4vICWb9RmVqiigJqbIK-119" vertex="1" connectable="0">
          <mxGeometry x="0.8463" y="1" relative="1" as="geometry">
            <mxPoint x="-342" y="51" as="offset" />
          </mxGeometry>
        </mxCell>
        <mxCell id="fY8Jnyo77yMWFTsGNpAv-2" value="order info" style="edgeLabel;html=1;align=center;verticalAlign=middle;resizable=0;points=[];" parent="S4vICWb9RmVqiigJqbIK-119" vertex="1" connectable="0">
          <mxGeometry x="-0.9079" y="-1" relative="1" as="geometry">
            <mxPoint x="17" as="offset" />
          </mxGeometry>
        </mxCell>
        <mxCell id="dtbD8rRxmauY1tutwqU4-11" style="edgeStyle=orthogonalEdgeStyle;rounded=0;orthogonalLoop=1;jettySize=auto;html=1;exitX=0.933;exitY=0.001;exitDx=0;exitDy=0;strokeColor=#FF051E;exitPerimeter=0;" parent="1" source="S4vICWb9RmVqiigJqbIK-93" target="dtbD8rRxmauY1tutwqU4-4" edge="1">
          <mxGeometry relative="1" as="geometry">
            <Array as="points">
              <mxPoint x="-1150" y="-1640" />
            </Array>
          </mxGeometry>
        </mxCell>
        <mxCell id="wQDentvwODpDM7mI2al0-1" value="order info" style="edgeLabel;html=1;align=center;verticalAlign=middle;resizable=0;points=[];rotation=90;" parent="dtbD8rRxmauY1tutwqU4-11" vertex="1" connectable="0">
          <mxGeometry x="-0.0708" y="-1" relative="1" as="geometry">
            <mxPoint y="4" as="offset" />
          </mxGeometry>
        </mxCell>
        <mxCell id="S4vICWb9RmVqiigJqbIK-93" value="&amp;nbsp;C&amp;nbsp; order info" style="html=1;dashed=0;whitespace=wrap;shape=mxgraph.dfd.dataStoreID;align=left;spacingLeft=3;points=[[0,0],[0.5,0],[1,0],[0,0.5],[1,0.5],[0,1],[0.5,1],[1,1]];fontSize=20;" parent="1" vertex="1">
          <mxGeometry x="-1400" y="-1390" width="268" height="73" as="geometry" />
        </mxCell>
        <mxCell id="S4vICWb9RmVqiigJqbIK-97" style="edgeStyle=orthogonalEdgeStyle;rounded=0;orthogonalLoop=1;jettySize=auto;html=1;exitX=0;exitY=0.714;exitDx=0;exitDy=0;exitPerimeter=0;fillColor=#f8cecc;strokeColor=#b85450;" parent="1" source="S4vICWb9RmVqiigJqbIK-94" target="S4vICWb9RmVqiigJqbIK-48" edge="1">
          <mxGeometry relative="1" as="geometry">
            <mxPoint x="-1400" y="-1740" as="targetPoint" />
            <Array as="points">
              <mxPoint x="-1410" y="-1780" />
            </Array>
          </mxGeometry>
        </mxCell>
        <mxCell id="1NZBIHwXVsQc4CvPOvai-3" value="confirmation notify" style="edgeLabel;html=1;align=center;verticalAlign=middle;resizable=0;points=[];" parent="S4vICWb9RmVqiigJqbIK-97" vertex="1" connectable="0">
          <mxGeometry x="0.1584" y="3" relative="1" as="geometry">
            <mxPoint x="38" y="-7" as="offset" />
          </mxGeometry>
        </mxCell>
        <mxCell id="S4vICWb9RmVqiigJqbIK-94" value="sms provider" style="whiteSpace=wrap;html=1;align=center;fontSize=20;" parent="1" vertex="1">
          <mxGeometry x="-1210" y="-1830" width="295" height="70" as="geometry" />
        </mxCell>
        <mxCell id="dXFZXRa_yULJPOTt_srA-8" style="edgeStyle=orthogonalEdgeStyle;rounded=0;orthogonalLoop=1;jettySize=auto;html=1;exitX=0.61;exitY=1;exitDx=0;exitDy=0;exitPerimeter=0;entryX=0.37;entryY=0.002;entryDx=0;entryDy=0;entryPerimeter=0;" parent="1" source="S4vICWb9RmVqiigJqbIK-98" target="dXFZXRa_yULJPOTt_srA-3" edge="1">
          <mxGeometry relative="1" as="geometry">
            <Array as="points">
              <mxPoint x="-2571" y="-769" />
            </Array>
          </mxGeometry>
        </mxCell>
        <mxCell id="26-_QEdhsg3uctZ_GNh8-30" value="access web" style="edgeLabel;html=1;align=center;verticalAlign=middle;resizable=0;points=[];rotation=90;" parent="dXFZXRa_yULJPOTt_srA-8" vertex="1" connectable="0">
          <mxGeometry x="-0.1862" y="-4" relative="1" as="geometry">
            <mxPoint x="4" y="13" as="offset" />
          </mxGeometry>
        </mxCell>
        <mxCell id="7AHOvWVGYk726h8FsGlm-1" style="edgeStyle=orthogonalEdgeStyle;rounded=0;orthogonalLoop=1;jettySize=auto;html=1;strokeColor=#FF051E;exitX=1.003;exitY=0.331;exitDx=0;exitDy=0;exitPerimeter=0;" parent="1" source="S4vICWb9RmVqiigJqbIK-98" target="S4vICWb9RmVqiigJqbIK-49" edge="1">
          <mxGeometry relative="1" as="geometry">
            <Array as="points">
              <mxPoint x="-2288" y="-1090" />
              <mxPoint x="-2050" y="-1090" />
              <mxPoint x="-2050" y="-1510" />
              <mxPoint x="-2000" y="-1510" />
              <mxPoint x="-2000" y="-1690" />
            </Array>
            <mxPoint x="-2510" y="-1240" as="sourcePoint" />
          </mxGeometry>
        </mxCell>
        <mxCell id="7AHOvWVGYk726h8FsGlm-2" value="slip info" style="edgeLabel;html=1;align=center;verticalAlign=middle;resizable=0;points=[];" parent="7AHOvWVGYk726h8FsGlm-1" vertex="1" connectable="0">
          <mxGeometry x="-0.4391" y="-2" relative="1" as="geometry">
            <mxPoint x="-112" y="137" as="offset" />
          </mxGeometry>
        </mxCell>
        <mxCell id="S4vICWb9RmVqiigJqbIK-98" value="customer" style="whiteSpace=wrap;html=1;align=center;fontSize=20;" parent="1" vertex="1">
          <mxGeometry x="-3010" y="-1250" width="720" height="480" as="geometry" />
        </mxCell>
        <mxCell id="S4vICWb9RmVqiigJqbIK-99" style="edgeStyle=orthogonalEdgeStyle;rounded=0;orthogonalLoop=1;jettySize=auto;html=1;" parent="1" edge="1">
          <mxGeometry relative="1" as="geometry">
            <mxPoint x="-1383" y="-1660" as="sourcePoint" />
            <Array as="points">
              <mxPoint x="-1383" y="-1660" />
              <mxPoint x="-1300" y="-1660" />
              <mxPoint x="-1300" y="-1391" />
            </Array>
            <mxPoint x="-1300" y="-1390" as="targetPoint" />
          </mxGeometry>
        </mxCell>
        <mxCell id="26-_QEdhsg3uctZ_GNh8-48" value="order info" style="edgeLabel;html=1;align=center;verticalAlign=middle;resizable=0;points=[];rotation=90;" parent="S4vICWb9RmVqiigJqbIK-99" vertex="1" connectable="0">
          <mxGeometry x="-0.144" y="2" relative="1" as="geometry">
            <mxPoint y="62" as="offset" />
          </mxGeometry>
        </mxCell>
        <mxCell id="S4vICWb9RmVqiigJqbIK-101" value="10.0" style="swimlane;childLayout=stackLayout;horizontal=1;startSize=30;horizontalStack=0;rounded=1;fontSize=14;fontStyle=0;strokeWidth=2;resizeParent=0;resizeLast=1;shadow=0;dashed=0;align=center;fillColor=#f8cecc;strokeColor=#b85450;" parent="1" vertex="1">
          <mxGeometry x="-1360" y="-740" width="230" height="600" as="geometry" />
        </mxCell>
        <mxCell id="S4vICWb9RmVqiigJqbIK-102" value="manage services info" style="align=center;strokeColor=none;fillColor=none;spacingLeft=4;fontSize=20;verticalAlign=middle;resizable=0;rotatable=0;part=1;" parent="S4vICWb9RmVqiigJqbIK-101" vertex="1">
          <mxGeometry y="30" width="230" height="570" as="geometry" />
        </mxCell>
        <mxCell id="S4vICWb9RmVqiigJqbIK-142" style="edgeStyle=orthogonalEdgeStyle;rounded=0;orthogonalLoop=1;jettySize=auto;html=1;exitX=0.001;exitY=0.03;exitDx=0;exitDy=0;exitPerimeter=0;" parent="1" source="3MDlPkKo6m4XxgB9dood-11" edge="1">
          <mxGeometry relative="1" as="geometry">
            <mxPoint x="-1368" y="-1130.25" as="sourcePoint" />
            <mxPoint x="-1570" y="-1170" as="targetPoint" />
            <Array as="points">
              <mxPoint x="-1570" y="-1190" />
            </Array>
          </mxGeometry>
        </mxCell>
        <mxCell id="26-_QEdhsg3uctZ_GNh8-69" value="new attendance info" style="edgeLabel;html=1;align=center;verticalAlign=middle;resizable=0;points=[];" parent="S4vICWb9RmVqiigJqbIK-142" vertex="1" connectable="0">
          <mxGeometry x="-0.2196" y="-2" relative="1" as="geometry">
            <mxPoint x="-12" y="-4" as="offset" />
          </mxGeometry>
        </mxCell>
        <mxCell id="S4vICWb9RmVqiigJqbIK-134" style="edgeStyle=orthogonalEdgeStyle;rounded=0;orthogonalLoop=1;jettySize=auto;html=1;exitX=-0.001;exitY=0.153;exitDx=0;exitDy=0;exitPerimeter=0;entryX=0;entryY=0;entryDx=0;entryDy=0;" parent="1" source="S4vICWb9RmVqiigJqbIK-112" target="S4vICWb9RmVqiigJqbIK-102" edge="1">
          <mxGeometry relative="1" as="geometry">
            <mxPoint x="-1369" y="-1300" as="targetPoint" />
            <Array as="points">
              <mxPoint x="-1778" y="-890" />
              <mxPoint x="-1810" y="-890" />
              <mxPoint x="-1810" y="-710" />
            </Array>
          </mxGeometry>
        </mxCell>
        <mxCell id="26-_QEdhsg3uctZ_GNh8-73" value="workleave info" style="edgeLabel;html=1;align=center;verticalAlign=middle;resizable=0;points=[];" parent="S4vICWb9RmVqiigJqbIK-134" vertex="1" connectable="0">
          <mxGeometry x="0.6249" relative="1" as="geometry">
            <mxPoint as="offset" />
          </mxGeometry>
        </mxCell>
        <mxCell id="S4vICWb9RmVqiigJqbIK-147" style="edgeStyle=orthogonalEdgeStyle;rounded=0;orthogonalLoop=1;jettySize=auto;html=1;exitX=0.755;exitY=-0.003;exitDx=0;exitDy=0;exitPerimeter=0;" parent="1" source="S4vICWb9RmVqiigJqbIK-112" target="3MDlPkKo6m4XxgB9dood-12" edge="1">
          <mxGeometry relative="1" as="geometry">
            <mxPoint x="-1570" y="-933" as="sourcePoint" />
            <Array as="points">
              <mxPoint x="-1570" y="-952" />
            </Array>
            <mxPoint x="-1368" y="-982" as="targetPoint" />
          </mxGeometry>
        </mxCell>
        <mxCell id="26-_QEdhsg3uctZ_GNh8-72" value="workleave info" style="edgeLabel;html=1;align=center;verticalAlign=middle;resizable=0;points=[];" parent="S4vICWb9RmVqiigJqbIK-147" vertex="1" connectable="0">
          <mxGeometry x="-0.1616" relative="1" as="geometry">
            <mxPoint x="19" as="offset" />
          </mxGeometry>
        </mxCell>
        <mxCell id="S4vICWb9RmVqiigJqbIK-112" value="&amp;nbsp;D&amp;nbsp; employee workleave info" style="html=1;dashed=0;whitespace=wrap;shape=mxgraph.dfd.dataStoreID;align=left;spacingLeft=3;points=[[0,0],[0.5,0],[1,0],[0,0.5],[1,0.5],[0,1],[0.5,1],[1,1]];fontSize=20;" parent="1" vertex="1">
          <mxGeometry x="-1787" y="-940" width="288" height="65" as="geometry" />
        </mxCell>
        <mxCell id="S4vICWb9RmVqiigJqbIK-133" style="edgeStyle=orthogonalEdgeStyle;rounded=0;orthogonalLoop=1;jettySize=auto;html=1;" parent="1" edge="1">
          <mxGeometry relative="1" as="geometry">
            <Array as="points">
              <mxPoint x="-1787" y="-1030" />
              <mxPoint x="-1830" y="-1030" />
              <mxPoint x="-1830" y="-690" />
            </Array>
            <mxPoint x="-1360" y="-690" as="targetPoint" />
            <mxPoint x="-1787" y="-1030" as="sourcePoint" />
          </mxGeometry>
        </mxCell>
        <mxCell id="26-_QEdhsg3uctZ_GNh8-76" value="salary info" style="edgeLabel;html=1;align=center;verticalAlign=middle;resizable=0;points=[];" parent="S4vICWb9RmVqiigJqbIK-133" vertex="1" connectable="0">
          <mxGeometry x="0.3243" y="4" relative="1" as="geometry">
            <mxPoint x="156" y="4" as="offset" />
          </mxGeometry>
        </mxCell>
        <mxCell id="S4vICWb9RmVqiigJqbIK-113" value="&amp;nbsp;E&amp;nbsp; employee history salary info" style="html=1;dashed=0;whitespace=wrap;shape=mxgraph.dfd.dataStoreID;align=left;spacingLeft=3;points=[[0,0],[0.5,0],[1,0],[0,0.5],[1,0.5],[0,1],[0.5,1],[1,1]];fontSize=20;fillColor=#f8cecc;strokeColor=#b85450;" parent="1" vertex="1">
          <mxGeometry x="-1787" y="-1060" width="304" height="70" as="geometry" />
        </mxCell>
        <mxCell id="S4vICWb9RmVqiigJqbIK-131" style="edgeStyle=orthogonalEdgeStyle;rounded=0;orthogonalLoop=1;jettySize=auto;html=1;" parent="1" target="S4vICWb9RmVqiigJqbIK-102" edge="1">
          <mxGeometry relative="1" as="geometry">
            <mxPoint x="-1790" y="-1140" as="sourcePoint" />
            <mxPoint x="-1370" y="-1330" as="targetPoint" />
            <Array as="points">
              <mxPoint x="-1850" y="-1140" />
              <mxPoint x="-1850" y="-670" />
            </Array>
          </mxGeometry>
        </mxCell>
        <mxCell id="26-_QEdhsg3uctZ_GNh8-74" value="attendance info" style="edgeLabel;html=1;align=center;verticalAlign=middle;resizable=0;points=[];" parent="S4vICWb9RmVqiigJqbIK-131" vertex="1" connectable="0">
          <mxGeometry x="0.1587" y="3" relative="1" as="geometry">
            <mxPoint x="298" y="3" as="offset" />
          </mxGeometry>
        </mxCell>
        <mxCell id="S4vICWb9RmVqiigJqbIK-140" style="edgeStyle=orthogonalEdgeStyle;rounded=0;orthogonalLoop=1;jettySize=auto;html=1;exitX=0.746;exitY=1.002;exitDx=0;exitDy=0;exitPerimeter=0;" parent="1" source="S4vICWb9RmVqiigJqbIK-114" target="3MDlPkKo6m4XxgB9dood-12" edge="1">
          <mxGeometry relative="1" as="geometry">
            <mxPoint x="-1369" y="-1050" as="targetPoint" />
            <Array as="points">
              <mxPoint x="-1571" y="-1090" />
            </Array>
          </mxGeometry>
        </mxCell>
        <mxCell id="26-_QEdhsg3uctZ_GNh8-75" value="attendance info" style="edgeLabel;html=1;align=center;verticalAlign=middle;resizable=0;points=[];" parent="S4vICWb9RmVqiigJqbIK-140" vertex="1" connectable="0">
          <mxGeometry x="0.088" y="-2" relative="1" as="geometry">
            <mxPoint as="offset" />
          </mxGeometry>
        </mxCell>
        <mxCell id="S4vICWb9RmVqiigJqbIK-114" value="&amp;nbsp;F&amp;nbsp; employee attendance info" style="html=1;dashed=0;whitespace=wrap;shape=mxgraph.dfd.dataStoreID;align=left;spacingLeft=3;points=[[0,0],[0.5,0],[1,0],[0,0.5],[1,0.5],[0,1],[0.5,1],[1,1]];fontSize=20;" parent="1" vertex="1">
          <mxGeometry x="-1787" y="-1169" width="290" height="66" as="geometry" />
        </mxCell>
        <mxCell id="S4vICWb9RmVqiigJqbIK-121" style="edgeStyle=orthogonalEdgeStyle;rounded=0;orthogonalLoop=1;jettySize=auto;html=1;exitX=1.006;exitY=0.031;exitDx=0;exitDy=0;exitPerimeter=0;" parent="1" source="3MDlPkKo6m4XxgB9dood-12" edge="1">
          <mxGeometry relative="1" as="geometry">
            <mxPoint x="-1180" y="-1161.5000000000005" as="sourcePoint" />
            <Array as="points" />
            <mxPoint x="-1011" y="-1160" as="targetPoint" />
          </mxGeometry>
        </mxCell>
        <mxCell id="26-_QEdhsg3uctZ_GNh8-80" value="add success" style="edgeLabel;html=1;align=center;verticalAlign=middle;resizable=0;points=[];" parent="S4vICWb9RmVqiigJqbIK-121" vertex="1" connectable="0">
          <mxGeometry x="0.1045" y="-1" relative="1" as="geometry">
            <mxPoint as="offset" />
          </mxGeometry>
        </mxCell>
        <mxCell id="S4vICWb9RmVqiigJqbIK-122" style="edgeStyle=orthogonalEdgeStyle;rounded=0;orthogonalLoop=1;jettySize=auto;html=1;exitX=1;exitY=0.5;exitDx=0;exitDy=0;entryX=0;entryY=0.5;entryDx=0;entryDy=0;" parent="1" source="3MDlPkKo6m4XxgB9dood-12" target="7h5jGF_3rGkxscpFPyfr-1" edge="1">
          <mxGeometry relative="1" as="geometry">
            <mxPoint x="-1050" y="-1010" as="targetPoint" />
            <Array as="points" />
            <mxPoint x="-1177.9319999999998" y="-1010.0720000000001" as="sourcePoint" />
          </mxGeometry>
        </mxCell>
        <mxCell id="26-_QEdhsg3uctZ_GNh8-81" value="sumary success" style="edgeLabel;html=1;align=center;verticalAlign=middle;resizable=0;points=[];" parent="S4vICWb9RmVqiigJqbIK-122" vertex="1" connectable="0">
          <mxGeometry x="0.22" y="-1" relative="1" as="geometry">
            <mxPoint x="-20" y="-1" as="offset" />
          </mxGeometry>
        </mxCell>
        <mxCell id="S4vICWb9RmVqiigJqbIK-146" style="edgeStyle=orthogonalEdgeStyle;rounded=0;orthogonalLoop=1;jettySize=auto;html=1;" parent="1" source="3MDlPkKo6m4XxgB9dood-12" target="S4vICWb9RmVqiigJqbIK-113" edge="1">
          <mxGeometry relative="1" as="geometry">
            <Array as="points">
              <mxPoint x="-1570" y="-970" />
            </Array>
            <mxPoint x="-1368" y="-980" as="sourcePoint" />
          </mxGeometry>
        </mxCell>
        <mxCell id="26-_QEdhsg3uctZ_GNh8-70" value="new salary info" style="edgeLabel;html=1;align=center;verticalAlign=middle;resizable=0;points=[];" parent="S4vICWb9RmVqiigJqbIK-146" vertex="1" connectable="0">
          <mxGeometry x="0.2768" y="1" relative="1" as="geometry">
            <mxPoint x="32" y="-1" as="offset" />
          </mxGeometry>
        </mxCell>
        <mxCell id="S4vICWb9RmVqiigJqbIK-149" style="edgeStyle=orthogonalEdgeStyle;rounded=0;orthogonalLoop=1;jettySize=auto;html=1;exitX=-0.001;exitY=0.967;exitDx=0;exitDy=0;exitPerimeter=0;" parent="1" source="3MDlPkKo6m4XxgB9dood-12" edge="1">
          <mxGeometry relative="1" as="geometry">
            <mxPoint x="-1448" y="-874.74" as="sourcePoint" />
            <mxPoint x="-1570" y="-874.74" as="targetPoint" />
            <Array as="points">
              <mxPoint x="-1448" y="-861" />
              <mxPoint x="-1570" y="-860" />
            </Array>
          </mxGeometry>
        </mxCell>
        <mxCell id="26-_QEdhsg3uctZ_GNh8-71" value="new workleave info" style="edgeLabel;html=1;align=center;verticalAlign=middle;resizable=0;points=[];" parent="S4vICWb9RmVqiigJqbIK-149" vertex="1" connectable="0">
          <mxGeometry x="0.3354" y="-1" relative="1" as="geometry">
            <mxPoint x="35" y="1" as="offset" />
          </mxGeometry>
        </mxCell>
        <mxCell id="S4vICWb9RmVqiigJqbIK-163" style="edgeStyle=orthogonalEdgeStyle;rounded=0;orthogonalLoop=1;jettySize=auto;html=1;" parent="1" target="-Wf0UNa4JU4qSRJhT9cN-1" edge="1">
          <mxGeometry relative="1" as="geometry">
            <Array as="points">
              <mxPoint x="-1590" y="-540" />
            </Array>
            <mxPoint x="-1360" y="-540" as="sourcePoint" />
            <mxPoint x="-1590" y="-560" as="targetPoint" />
          </mxGeometry>
        </mxCell>
        <mxCell id="26-_QEdhsg3uctZ_GNh8-47" value="new commision" style="edgeLabel;html=1;align=center;verticalAlign=middle;resizable=0;points=[];" parent="S4vICWb9RmVqiigJqbIK-163" vertex="1" connectable="0">
          <mxGeometry x="0.2563" relative="1" as="geometry">
            <mxPoint x="71" as="offset" />
          </mxGeometry>
        </mxCell>
        <mxCell id="S4vICWb9RmVqiigJqbIK-165" style="edgeStyle=orthogonalEdgeStyle;rounded=0;orthogonalLoop=1;jettySize=auto;html=1;exitX=-0.001;exitY=0.509;exitDx=0;exitDy=0;exitPerimeter=0;entryX=0.727;entryY=1.024;entryDx=0;entryDy=0;entryPerimeter=0;" parent="1" source="S4vICWb9RmVqiigJqbIK-102" target="ToerUvIUihToS5gZ5FDm-1" edge="1">
          <mxGeometry relative="1" as="geometry">
            <mxPoint x="-1562.8600000000001" y="-417.65" as="targetPoint" />
            <Array as="points">
              <mxPoint x="-1363" y="-420" />
              <mxPoint x="-1590" y="-420" />
            </Array>
            <mxPoint x="-1363.132000000001" y="-405.3520000000002" as="sourcePoint" />
          </mxGeometry>
        </mxCell>
        <mxCell id="26-_QEdhsg3uctZ_GNh8-44" value="new promotion" style="edgeLabel;html=1;align=center;verticalAlign=middle;resizable=0;points=[];" parent="S4vICWb9RmVqiigJqbIK-165" vertex="1" connectable="0">
          <mxGeometry x="0.1728" y="-1" relative="1" as="geometry">
            <mxPoint x="59" as="offset" />
          </mxGeometry>
        </mxCell>
        <mxCell id="S4vICWb9RmVqiigJqbIK-167" style="edgeStyle=orthogonalEdgeStyle;rounded=0;orthogonalLoop=1;jettySize=auto;html=1;entryX=0.729;entryY=1.011;entryDx=0;entryDy=0;entryPerimeter=0;exitX=0.006;exitY=0.72;exitDx=0;exitDy=0;exitPerimeter=0;" parent="1" source="S4vICWb9RmVqiigJqbIK-102" target="lDOKuMuyD6le_Ei1dL40-1" edge="1">
          <mxGeometry relative="1" as="geometry">
            <mxPoint x="-1582.83" y="-300" as="targetPoint" />
            <Array as="points">
              <mxPoint x="-1383" y="-300" />
              <mxPoint x="-1589" y="-300" />
            </Array>
            <mxPoint x="-1370" y="-300" as="sourcePoint" />
          </mxGeometry>
        </mxCell>
        <mxCell id="26-_QEdhsg3uctZ_GNh8-45" value="new service" style="edgeLabel;html=1;align=center;verticalAlign=middle;resizable=0;points=[];" parent="S4vICWb9RmVqiigJqbIK-167" vertex="1" connectable="0">
          <mxGeometry x="0.3612" y="5" relative="1" as="geometry">
            <mxPoint x="83" y="-5" as="offset" />
          </mxGeometry>
        </mxCell>
        <mxCell id="S4vICWb9RmVqiigJqbIK-156" style="edgeStyle=orthogonalEdgeStyle;rounded=0;orthogonalLoop=1;jettySize=auto;html=1;entryX=0;entryY=0.256;entryDx=0;entryDy=0;exitX=1.003;exitY=0.316;exitDx=0;exitDy=0;exitPerimeter=0;entryPerimeter=0;" parent="1" source="S4vICWb9RmVqiigJqbIK-102" edge="1">
          <mxGeometry relative="1" as="geometry">
            <mxPoint x="-1180" y="-530" as="sourcePoint" />
            <mxPoint x="-730" y="-530.1199999999999" as="targetPoint" />
            <Array as="points">
              <mxPoint x="-810" y="-530" />
              <mxPoint x="-810" y="-530" />
            </Array>
          </mxGeometry>
        </mxCell>
        <mxCell id="26-_QEdhsg3uctZ_GNh8-41" value="edit success" style="edgeLabel;html=1;align=center;verticalAlign=middle;resizable=0;points=[];" parent="S4vICWb9RmVqiigJqbIK-156" vertex="1" connectable="0">
          <mxGeometry x="-0.4674" y="4" relative="1" as="geometry">
            <mxPoint x="99" y="4" as="offset" />
          </mxGeometry>
        </mxCell>
        <mxCell id="S4vICWb9RmVqiigJqbIK-169" style="edgeStyle=orthogonalEdgeStyle;rounded=0;orthogonalLoop=1;jettySize=auto;html=1;exitX=0.001;exitY=0.93;exitDx=0;exitDy=0;exitPerimeter=0;" parent="1" source="S4vICWb9RmVqiigJqbIK-102" target="O0DZx0-W63CPv14JqbIX-1" edge="1">
          <mxGeometry relative="1" as="geometry">
            <mxPoint x="-1330" y="-180" as="sourcePoint" />
            <Array as="points">
              <mxPoint x="-1642" y="-180" />
            </Array>
            <mxPoint x="-1580" y="-200" as="targetPoint" />
          </mxGeometry>
        </mxCell>
        <mxCell id="26-_QEdhsg3uctZ_GNh8-46" value="new package" style="edgeLabel;html=1;align=center;verticalAlign=middle;resizable=0;points=[];" parent="S4vICWb9RmVqiigJqbIK-169" vertex="1" connectable="0">
          <mxGeometry x="-0.0159" y="-1" relative="1" as="geometry">
            <mxPoint x="62" y="-2" as="offset" />
          </mxGeometry>
        </mxCell>
        <mxCell id="S4vICWb9RmVqiigJqbIK-172" style="edgeStyle=orthogonalEdgeStyle;rounded=0;orthogonalLoop=1;jettySize=auto;html=1;exitX=0.076;exitY=0.993;exitDx=0;exitDy=0;exitPerimeter=0;startArrow=classic;startFill=1;endArrow=none;endFill=0;" parent="1" source="S4vICWb9RmVqiigJqbIK-49" target="O0DZx0-W63CPv14JqbIX-1" edge="1">
          <mxGeometry relative="1" as="geometry">
            <mxPoint x="-2050" y="-100" as="targetPoint" />
            <mxPoint x="-1529" y="-1580" as="sourcePoint" />
            <Array as="points">
              <mxPoint x="-1531" y="-1430" />
              <mxPoint x="-1950" y="-1430" />
              <mxPoint x="-1950" y="-240" />
            </Array>
          </mxGeometry>
        </mxCell>
        <mxCell id="26-_QEdhsg3uctZ_GNh8-37" value="package info" style="edgeLabel;html=1;align=center;verticalAlign=middle;resizable=0;points=[];" parent="S4vICWb9RmVqiigJqbIK-172" vertex="1" connectable="0">
          <mxGeometry x="0.8977" y="-2" relative="1" as="geometry">
            <mxPoint x="19" as="offset" />
          </mxGeometry>
        </mxCell>
        <mxCell id="dXFZXRa_yULJPOTt_srA-9" style="edgeStyle=orthogonalEdgeStyle;rounded=0;orthogonalLoop=1;jettySize=auto;html=1;exitX=0.586;exitY=0.006;exitDx=0;exitDy=0;exitPerimeter=0;entryX=0.666;entryY=1.004;entryDx=0;entryDy=0;entryPerimeter=0;" parent="1" source="dXFZXRa_yULJPOTt_srA-3" target="S4vICWb9RmVqiigJqbIK-98" edge="1">
          <mxGeometry relative="1" as="geometry">
            <Array as="points" />
          </mxGeometry>
        </mxCell>
        <mxCell id="26-_QEdhsg3uctZ_GNh8-31" value="data" style="edgeLabel;html=1;align=center;verticalAlign=middle;resizable=0;points=[];rotation=90;" parent="dXFZXRa_yULJPOTt_srA-9" vertex="1" connectable="0">
          <mxGeometry x="0.2608" y="1" relative="1" as="geometry">
            <mxPoint x="1" y="18" as="offset" />
          </mxGeometry>
        </mxCell>
        <mxCell id="dXFZXRa_yULJPOTt_srA-3" value="2.0" style="swimlane;childLayout=stackLayout;horizontal=1;startSize=30;horizontalStack=0;rounded=1;fontSize=14;fontStyle=0;strokeWidth=2;resizeParent=0;resizeLast=1;shadow=0;dashed=0;align=center;fillColor=#fff2cc;strokeColor=#d6b656;" parent="1" vertex="1">
          <mxGeometry x="-2640" y="-580" width="188" height="117" as="geometry" />
        </mxCell>
        <mxCell id="dXFZXRa_yULJPOTt_srA-4" value="display services" style="align=center;strokeColor=none;fillColor=none;spacingLeft=4;fontSize=20;verticalAlign=middle;resizable=0;rotatable=0;part=1;" parent="dXFZXRa_yULJPOTt_srA-3" vertex="1">
          <mxGeometry y="30" width="188" height="87" as="geometry" />
        </mxCell>
        <mxCell id="26-_QEdhsg3uctZ_GNh8-50" style="edgeStyle=orthogonalEdgeStyle;rounded=0;orthogonalLoop=1;jettySize=auto;html=1;exitX=1.001;exitY=0.667;exitDx=0;exitDy=0;exitPerimeter=0;" parent="1" source="S4vICWb9RmVqiigJqbIK-66" target="S4vICWb9RmVqiigJqbIK-6" edge="1">
          <mxGeometry relative="1" as="geometry">
            <Array as="points">
              <mxPoint x="-2020" y="-2131" />
              <mxPoint x="-1951" y="-2131" />
            </Array>
          </mxGeometry>
        </mxCell>
        <mxCell id="26-_QEdhsg3uctZ_GNh8-51" value="customer new info" style="edgeLabel;html=1;align=center;verticalAlign=middle;resizable=0;points=[];rotation=90;" parent="26-_QEdhsg3uctZ_GNh8-50" vertex="1" connectable="0">
          <mxGeometry x="0.0539" relative="1" as="geometry">
            <mxPoint as="offset" />
          </mxGeometry>
        </mxCell>
        <mxCell id="26-_QEdhsg3uctZ_GNh8-84" value="level 1 มีแยก customer&amp;nbsp; กับ&amp;nbsp; employee" style="text;html=1;strokeColor=none;fillColor=none;align=center;verticalAlign=middle;whiteSpace=wrap;rounded=0;" parent="1" vertex="1">
          <mxGeometry x="-2205" y="-2260" width="140" height="30" as="geometry" />
        </mxCell>
        <mxCell id="hjTLMzEfhI0qS4uDRWL_-5" style="edgeStyle=orthogonalEdgeStyle;rounded=0;orthogonalLoop=1;jettySize=auto;html=1;exitX=-0.001;exitY=0.846;exitDx=0;exitDy=0;exitPerimeter=0;" parent="1" source="S4vICWb9RmVqiigJqbIK-49" edge="1">
          <mxGeometry relative="1" as="geometry">
            <Array as="points">
              <mxPoint x="-1940" y="-1631" />
              <mxPoint x="-1940" y="-1450" />
              <mxPoint x="-1990" y="-1450" />
              <mxPoint x="-1990" y="-850" />
            </Array>
            <mxPoint x="-1543" y="-1590" as="sourcePoint" />
            <mxPoint x="-2290" y="-850" as="targetPoint" />
          </mxGeometry>
        </mxCell>
        <mxCell id="hjTLMzEfhI0qS4uDRWL_-6" value="receipt" style="edgeLabel;html=1;align=center;verticalAlign=middle;resizable=0;points=[];" parent="hjTLMzEfhI0qS4uDRWL_-5" vertex="1" connectable="0">
          <mxGeometry x="-0.6556" y="-2" relative="1" as="geometry">
            <mxPoint x="-354" y="783" as="offset" />
          </mxGeometry>
        </mxCell>
        <mxCell id="dtbD8rRxmauY1tutwqU4-1" style="edgeStyle=orthogonalEdgeStyle;rounded=0;orthogonalLoop=1;jettySize=auto;html=1;fillColor=#f8cecc;strokeColor=#b85450;" parent="1" edge="1">
          <mxGeometry relative="1" as="geometry">
            <mxPoint x="-2115" y="-1350" as="sourcePoint" />
            <mxPoint x="-1400" y="-1350" as="targetPoint" />
            <Array as="points">
              <mxPoint x="-2115" y="-1350" />
              <mxPoint x="-1400" y="-1350" />
            </Array>
          </mxGeometry>
        </mxCell>
        <mxCell id="wQDentvwODpDM7mI2al0-7" value="service info" style="edgeLabel;html=1;align=center;verticalAlign=middle;resizable=0;points=[];" parent="dtbD8rRxmauY1tutwqU4-1" vertex="1" connectable="0">
          <mxGeometry x="-0.514" relative="1" as="geometry">
            <mxPoint x="478" as="offset" />
          </mxGeometry>
        </mxCell>
        <mxCell id="dtbD8rRxmauY1tutwqU4-3" value="5.0" style="swimlane;childLayout=stackLayout;horizontal=1;startSize=30;horizontalStack=0;rounded=1;fontSize=14;fontStyle=0;strokeWidth=2;resizeParent=0;resizeLast=1;shadow=0;dashed=0;align=center;fillColor=#dae8fc;strokeColor=#6c8ebf;" parent="1" vertex="1">
          <mxGeometry x="-1090" y="-1730.75" width="160" height="115" as="geometry" />
        </mxCell>
        <mxCell id="dtbD8rRxmauY1tutwqU4-4" value="manage order" style="align=center;strokeColor=none;fillColor=none;spacingLeft=4;fontSize=20;verticalAlign=middle;resizable=0;rotatable=0;part=1;" parent="dtbD8rRxmauY1tutwqU4-3" vertex="1">
          <mxGeometry y="30" width="160" height="85" as="geometry" />
        </mxCell>
        <mxCell id="dtbD8rRxmauY1tutwqU4-8" style="edgeStyle=orthogonalEdgeStyle;rounded=0;orthogonalLoop=1;jettySize=auto;html=1;strokeColor=#FF051E;" parent="1" edge="1">
          <mxGeometry relative="1" as="geometry">
            <mxPoint x="-930" y="-1660" as="sourcePoint" />
            <mxPoint x="-890" y="-1250" as="targetPoint" />
            <Array as="points">
              <mxPoint x="-890" y="-1660" />
              <mxPoint x="-890" y="-1252" />
            </Array>
          </mxGeometry>
        </mxCell>
        <mxCell id="dtbD8rRxmauY1tutwqU4-9" value="edit success" style="edgeLabel;html=1;align=center;verticalAlign=middle;resizable=0;points=[];rotation=90;" parent="dtbD8rRxmauY1tutwqU4-8" vertex="1" connectable="0">
          <mxGeometry x="0.032" y="-2" relative="1" as="geometry">
            <mxPoint as="offset" />
          </mxGeometry>
        </mxCell>
        <mxCell id="dtbD8rRxmauY1tutwqU4-10" style="edgeStyle=orthogonalEdgeStyle;rounded=0;orthogonalLoop=1;jettySize=auto;html=1;strokeColor=#FF051E;" parent="1" edge="1">
          <mxGeometry relative="1" as="geometry">
            <Array as="points">
              <mxPoint x="-1090" y="-1660" />
              <mxPoint x="-1170" y="-1660" />
              <mxPoint x="-1170" y="-1391" />
            </Array>
            <mxPoint x="-1090" y="-1660" as="sourcePoint" />
            <mxPoint x="-1170" y="-1390" as="targetPoint" />
          </mxGeometry>
        </mxCell>
        <mxCell id="wQDentvwODpDM7mI2al0-2" value="status order" style="edgeLabel;html=1;align=center;verticalAlign=middle;resizable=0;points=[];rotation=90;" parent="dtbD8rRxmauY1tutwqU4-10" vertex="1" connectable="0">
          <mxGeometry x="0.4129" y="-2" relative="1" as="geometry">
            <mxPoint y="-37" as="offset" />
          </mxGeometry>
        </mxCell>
        <mxCell id="dtbD8rRxmauY1tutwqU4-14" value="" style="endArrow=classic;html=1;rounded=0;strokeColor=#FF051E;entryX=1;entryY=0.75;entryDx=0;entryDy=0;" parent="1" edge="1">
          <mxGeometry width="50" height="50" relative="1" as="geometry">
            <mxPoint x="-1070" y="-1024.12" as="sourcePoint" />
            <mxPoint x="-1160" y="-1118.87" as="targetPoint" />
            <Array as="points">
              <mxPoint x="-1070" y="-1094.12" />
            </Array>
          </mxGeometry>
        </mxCell>
        <mxCell id="dtbD8rRxmauY1tutwqU4-15" value="monthly trigger" style="edgeLabel;html=1;align=center;verticalAlign=middle;resizable=0;points=[];" parent="dtbD8rRxmauY1tutwqU4-14" vertex="1" connectable="0">
          <mxGeometry x="-0.6857" y="-1" relative="1" as="geometry">
            <mxPoint as="offset" />
          </mxGeometry>
        </mxCell>
        <mxCell id="dtbD8rRxmauY1tutwqU4-22" value="7.0" style="swimlane;childLayout=stackLayout;horizontal=1;startSize=30;horizontalStack=0;rounded=1;fontSize=14;fontStyle=0;strokeWidth=2;resizeParent=0;resizeLast=1;shadow=0;dashed=0;align=center;fillColor=#f8cecc;strokeColor=#b85450;" parent="1" vertex="1">
          <mxGeometry x="-1340" y="-2207" width="234" height="117" as="geometry" />
        </mxCell>
        <mxCell id="dtbD8rRxmauY1tutwqU4-23" value="manage employee info" style="align=center;strokeColor=none;fillColor=none;spacingLeft=4;fontSize=20;verticalAlign=middle;resizable=0;rotatable=0;part=1;" parent="dtbD8rRxmauY1tutwqU4-22" vertex="1">
          <mxGeometry y="30" width="234" height="87" as="geometry" />
        </mxCell>
        <mxCell id="s5pGeqbxVzEV1HRzRcSp-1" value="" style="edgeStyle=orthogonalEdgeStyle;rounded=0;orthogonalLoop=1;jettySize=auto;html=1;entryX=1.002;entryY=0.317;entryDx=0;entryDy=0;entryPerimeter=0;endArrow=none;startArrow=none;startFill=0;" parent="1" target="dtbD8rRxmauY1tutwqU4-23" edge="1">
          <mxGeometry relative="1" as="geometry">
            <Array as="points">
              <mxPoint x="-450" y="-1250" />
              <mxPoint x="-450" y="-2149" />
            </Array>
            <mxPoint x="-450" y="-1250" as="sourcePoint" />
            <mxPoint x="-1451.6239999999998" y="-2149.856" as="targetPoint" />
          </mxGeometry>
        </mxCell>
        <mxCell id="s5pGeqbxVzEV1HRzRcSp-3" value="employee edit request" style="edgeLabel;html=1;align=center;verticalAlign=middle;resizable=0;points=[];" parent="s5pGeqbxVzEV1HRzRcSp-1" vertex="1" connectable="0">
          <mxGeometry x="0.7587" relative="1" as="geometry">
            <mxPoint x="56" y="2" as="offset" />
          </mxGeometry>
        </mxCell>
        <mxCell id="3MDlPkKo6m4XxgB9dood-11" value="9.0" style="swimlane;childLayout=stackLayout;horizontal=1;startSize=30;horizontalStack=0;rounded=1;fontSize=14;fontStyle=0;strokeWidth=2;resizeParent=0;resizeLast=1;shadow=0;dashed=0;align=center;fillColor=#f8cecc;strokeColor=#b85450;" parent="1" vertex="1">
          <mxGeometry x="-1430" y="-1200" width="270" height="350" as="geometry" />
        </mxCell>
        <mxCell id="3MDlPkKo6m4XxgB9dood-12" value="manage employee options" style="align=center;strokeColor=none;fillColor=none;spacingLeft=4;fontSize=20;verticalAlign=middle;resizable=0;rotatable=0;part=1;" parent="3MDlPkKo6m4XxgB9dood-11" vertex="1">
          <mxGeometry y="30" width="270" height="320" as="geometry" />
        </mxCell>
        <mxCell id="tXrSH3ecW3neSqe9qm6G-4" value="owner" style="whiteSpace=wrap;html=1;align=center;fontSize=20;" parent="1" vertex="1">
          <mxGeometry x="-730" y="-540" width="160" height="60" as="geometry" />
        </mxCell>
      </root>
    </mxGraphModel>
  </diagram>
  <diagram id="K3YO-SUiGwuw5WrS8QeN" name="DFD สำรอง">
    <mxGraphModel dx="7134" dy="5262" grid="1" gridSize="10" guides="1" tooltips="1" connect="1" arrows="1" fold="1" page="1" pageScale="1" pageWidth="827" pageHeight="1169" math="0" shadow="0">
      <root>
        <mxCell id="0" />
        <mxCell id="1" parent="0" />
        <mxCell id="aZXLRmelcHpldHGkCNDH-3" value="3.2" style="swimlane;childLayout=stackLayout;horizontal=1;startSize=30;horizontalStack=0;rounded=1;fontSize=14;fontStyle=0;strokeWidth=2;resizeParent=0;resizeLast=1;shadow=0;dashed=0;align=center;fillColor=#dae8fc;strokeColor=#6c8ebf;" parent="1" vertex="1">
          <mxGeometry x="1722" y="-790" width="160" height="113" as="geometry" />
        </mxCell>
        <mxCell id="aZXLRmelcHpldHGkCNDH-4" value="payment" style="align=center;strokeColor=none;fillColor=none;spacingLeft=4;fontSize=20;verticalAlign=middle;resizable=0;rotatable=0;part=1;" parent="aZXLRmelcHpldHGkCNDH-3" vertex="1">
          <mxGeometry y="30" width="160" height="83" as="geometry" />
        </mxCell>
        <mxCell id="aZXLRmelcHpldHGkCNDH-5" value="3.3" style="swimlane;childLayout=stackLayout;horizontal=1;startSize=30;horizontalStack=0;rounded=1;fontSize=14;fontStyle=0;strokeWidth=2;resizeParent=0;resizeLast=1;shadow=0;dashed=0;align=center;fillColor=#dae8fc;strokeColor=#6c8ebf;" parent="1" vertex="1">
          <mxGeometry x="2010" y="-645.75" width="160" height="115" as="geometry" />
        </mxCell>
        <mxCell id="aZXLRmelcHpldHGkCNDH-6" value="generate receipt" style="align=center;strokeColor=none;fillColor=none;spacingLeft=4;fontSize=20;verticalAlign=middle;resizable=0;rotatable=0;part=1;" parent="aZXLRmelcHpldHGkCNDH-5" vertex="1">
          <mxGeometry y="30" width="160" height="85" as="geometry" />
        </mxCell>
        <mxCell id="aZXLRmelcHpldHGkCNDH-7" style="edgeStyle=orthogonalEdgeStyle;rounded=0;orthogonalLoop=1;jettySize=auto;html=1;exitX=1;exitY=0;exitDx=0;exitDy=0;entryX=0;entryY=0.25;entryDx=0;entryDy=0;" parent="1" source="pzpOyikx3uW7JnPA6GzY-18" target="aZXLRmelcHpldHGkCNDH-4" edge="1">
          <mxGeometry relative="1" as="geometry">
            <mxPoint x="987" y="-699" as="sourcePoint" />
          </mxGeometry>
        </mxCell>
        <mxCell id="aZXLRmelcHpldHGkCNDH-8" value="price of&amp;nbsp; order(when process of order suscess),order id" style="edgeLabel;html=1;align=center;verticalAlign=middle;resizable=0;points=[];" parent="aZXLRmelcHpldHGkCNDH-7" vertex="1" connectable="0">
          <mxGeometry x="0.1859" y="-1" relative="1" as="geometry">
            <mxPoint x="-1" as="offset" />
          </mxGeometry>
        </mxCell>
        <mxCell id="aZXLRmelcHpldHGkCNDH-9" style="edgeStyle=orthogonalEdgeStyle;rounded=0;orthogonalLoop=1;jettySize=auto;html=1;exitX=1;exitY=0.25;exitDx=0;exitDy=0;entryX=0;entryY=0.25;entryDx=0;entryDy=0;" parent="1" source="aZXLRmelcHpldHGkCNDH-4" target="aZXLRmelcHpldHGkCNDH-6" edge="1">
          <mxGeometry relative="1" as="geometry" />
        </mxCell>
        <mxCell id="aZXLRmelcHpldHGkCNDH-10" value="order id, price(when payment suscess)" style="edgeLabel;html=1;align=center;verticalAlign=middle;resizable=0;points=[];rotation=90;" parent="aZXLRmelcHpldHGkCNDH-9" vertex="1" connectable="0">
          <mxGeometry x="-0.2066" y="-2" relative="1" as="geometry">
            <mxPoint as="offset" />
          </mxGeometry>
        </mxCell>
        <mxCell id="aZXLRmelcHpldHGkCNDH-11" style="edgeStyle=orthogonalEdgeStyle;rounded=0;orthogonalLoop=1;jettySize=auto;html=1;exitX=0;exitY=0.5;exitDx=0;exitDy=0;entryX=0.75;entryY=1;entryDx=0;entryDy=0;" parent="1" source="aZXLRmelcHpldHGkCNDH-6" target="pzpOyikx3uW7JnPA6GzY-18" edge="1">
          <mxGeometry relative="1" as="geometry">
            <mxPoint x="987" y="-677.75" as="targetPoint" />
          </mxGeometry>
        </mxCell>
        <mxCell id="aZXLRmelcHpldHGkCNDH-12" value="order suscess(order id,receipt)" style="edgeLabel;html=1;align=center;verticalAlign=middle;resizable=0;points=[];" parent="aZXLRmelcHpldHGkCNDH-11" vertex="1" connectable="0">
          <mxGeometry x="-0.2155" y="-7" relative="1" as="geometry">
            <mxPoint as="offset" />
          </mxGeometry>
        </mxCell>
        <mxCell id="aZXLRmelcHpldHGkCNDH-13" style="edgeStyle=orthogonalEdgeStyle;rounded=0;orthogonalLoop=1;jettySize=auto;html=1;exitX=0.5;exitY=0;exitDx=0;exitDy=0;entryX=1;entryY=0.25;entryDx=0;entryDy=0;" parent="1" source="aZXLRmelcHpldHGkCNDH-14" target="aZXLRmelcHpldHGkCNDH-6" edge="1">
          <mxGeometry relative="1" as="geometry" />
        </mxCell>
        <mxCell id="wevdwiRx7eCbpH_b2mQL-2" value="receipt_data" style="edgeLabel;html=1;align=center;verticalAlign=middle;resizable=0;points=[];" parent="aZXLRmelcHpldHGkCNDH-13" vertex="1" connectable="0">
          <mxGeometry x="-0.1731" y="1" relative="1" as="geometry">
            <mxPoint as="offset" />
          </mxGeometry>
        </mxCell>
        <mxCell id="aZXLRmelcHpldHGkCNDH-14" value="&amp;nbsp;C&amp;nbsp; receipt" style="html=1;dashed=0;whitespace=wrap;shape=mxgraph.dfd.dataStoreID;align=left;spacingLeft=3;points=[[0,0],[0.5,0],[1,0],[0,0.5],[1,0.5],[0,1],[0.5,1],[1,1]];fontSize=20;" parent="1" vertex="1">
          <mxGeometry x="2090" y="-500" width="268" height="73" as="geometry" />
        </mxCell>
        <mxCell id="aZXLRmelcHpldHGkCNDH-15" style="edgeStyle=orthogonalEdgeStyle;rounded=0;orthogonalLoop=1;jettySize=auto;html=1;exitX=0.25;exitY=1;exitDx=0;exitDy=0;entryX=0;entryY=0.5;entryDx=0;entryDy=0;" parent="1" source="aZXLRmelcHpldHGkCNDH-6" target="aZXLRmelcHpldHGkCNDH-14" edge="1">
          <mxGeometry relative="1" as="geometry" />
        </mxCell>
        <mxCell id="wevdwiRx7eCbpH_b2mQL-1" value="new_data" style="edgeLabel;html=1;align=center;verticalAlign=middle;resizable=0;points=[];" parent="aZXLRmelcHpldHGkCNDH-15" vertex="1" connectable="0">
          <mxGeometry x="-0.5673" y="1" relative="1" as="geometry">
            <mxPoint as="offset" />
          </mxGeometry>
        </mxCell>
        <mxCell id="pzpOyikx3uW7JnPA6GzY-1" style="edgeStyle=orthogonalEdgeStyle;rounded=0;orthogonalLoop=1;jettySize=auto;html=1;exitX=0.085;exitY=-0.001;exitDx=0;exitDy=0;exitPerimeter=0;" parent="1" target="pzpOyikx3uW7JnPA6GzY-18" edge="1">
          <mxGeometry relative="1" as="geometry">
            <Array as="points">
              <mxPoint x="1340" y="-700" />
            </Array>
            <mxPoint x="1340.3500000000004" y="-450.57699999999977" as="sourcePoint" />
          </mxGeometry>
        </mxCell>
        <mxCell id="pzpOyikx3uW7JnPA6GzY-2" value="edit order" style="edgeLabel;html=1;align=center;verticalAlign=middle;resizable=0;points=[];" parent="pzpOyikx3uW7JnPA6GzY-1" vertex="1" connectable="0">
          <mxGeometry x="0.5018" y="3" relative="1" as="geometry">
            <mxPoint as="offset" />
          </mxGeometry>
        </mxCell>
        <mxCell id="pzpOyikx3uW7JnPA6GzY-3" style="edgeStyle=orthogonalEdgeStyle;rounded=0;orthogonalLoop=1;jettySize=auto;html=1;exitX=-0.001;exitY=0.315;exitDx=0;exitDy=0;startArrow=none;startFill=0;endArrow=classic;endFill=1;exitPerimeter=0;" parent="1" source="pzpOyikx3uW7JnPA6GzY-5" target="pzpOyikx3uW7JnPA6GzY-18" edge="1">
          <mxGeometry relative="1" as="geometry">
            <Array as="points">
              <mxPoint x="340" y="320" />
              <mxPoint x="340" y="-440" />
              <mxPoint x="860" y="-440" />
            </Array>
          </mxGeometry>
        </mxCell>
        <mxCell id="pzpOyikx3uW7JnPA6GzY-4" value="commission info" style="edgeLabel;html=1;align=center;verticalAlign=middle;resizable=0;points=[];" parent="pzpOyikx3uW7JnPA6GzY-3" vertex="1" connectable="0">
          <mxGeometry x="-0.5182" y="-1" relative="1" as="geometry">
            <mxPoint x="79" y="183" as="offset" />
          </mxGeometry>
        </mxCell>
        <mxCell id="pzpOyikx3uW7JnPA6GzY-5" value="&amp;nbsp;G&amp;nbsp; comission info" style="html=1;dashed=0;whitespace=wrap;shape=mxgraph.dfd.dataStoreID;align=left;spacingLeft=3;points=[[0,0],[0.5,0],[1,0],[0,0.5],[1,0.5],[0,1],[0.5,1],[1,1]];fontSize=20;" parent="1" vertex="1">
          <mxGeometry x="573" y="300" width="230" height="64" as="geometry" />
        </mxCell>
        <mxCell id="pzpOyikx3uW7JnPA6GzY-6" style="edgeStyle=orthogonalEdgeStyle;rounded=0;orthogonalLoop=1;jettySize=auto;html=1;startArrow=none;startFill=0;endArrow=classic;endFill=1;entryX=0.328;entryY=1.011;entryDx=0;entryDy=0;entryPerimeter=0;" parent="1" target="pzpOyikx3uW7JnPA6GzY-18" edge="1">
          <mxGeometry relative="1" as="geometry">
            <mxPoint x="573" y="480" as="sourcePoint" />
            <mxPoint x="840" y="-650" as="targetPoint" />
            <Array as="points">
              <mxPoint x="320" y="480" />
              <mxPoint x="320" y="-460" />
              <mxPoint x="840" y="-460" />
            </Array>
          </mxGeometry>
        </mxCell>
        <mxCell id="pzpOyikx3uW7JnPA6GzY-7" value="promotion info" style="edgeLabel;html=1;align=center;verticalAlign=middle;resizable=0;points=[];" parent="pzpOyikx3uW7JnPA6GzY-6" vertex="1" connectable="0">
          <mxGeometry x="-0.9006" y="-3" relative="1" as="geometry">
            <mxPoint as="offset" />
          </mxGeometry>
        </mxCell>
        <mxCell id="pzpOyikx3uW7JnPA6GzY-8" value="&amp;nbsp;H&amp;nbsp; promotion info" style="html=1;dashed=0;whitespace=wrap;shape=mxgraph.dfd.dataStoreID;align=left;spacingLeft=3;points=[[0,0],[0.5,0],[1,0],[0,0.5],[1,0.5],[0,1],[0.5,1],[1,1]];fontSize=20;" parent="1" vertex="1">
          <mxGeometry x="573" y="455" width="230" height="64" as="geometry" />
        </mxCell>
        <mxCell id="pzpOyikx3uW7JnPA6GzY-9" style="edgeStyle=orthogonalEdgeStyle;rounded=0;orthogonalLoop=1;jettySize=auto;html=1;exitX=-0.001;exitY=0.386;exitDx=0;exitDy=0;entryX=0.201;entryY=1.01;entryDx=0;entryDy=0;startArrow=none;startFill=0;endArrow=classic;endFill=1;entryPerimeter=0;exitPerimeter=0;" parent="1" source="pzpOyikx3uW7JnPA6GzY-11" target="pzpOyikx3uW7JnPA6GzY-18" edge="1">
          <mxGeometry relative="1" as="geometry">
            <Array as="points">
              <mxPoint x="300" y="640" />
              <mxPoint x="300" y="-480" />
              <mxPoint x="819" y="-480" />
              <mxPoint x="819" y="-653" />
            </Array>
          </mxGeometry>
        </mxCell>
        <mxCell id="pzpOyikx3uW7JnPA6GzY-10" value="service info" style="edgeLabel;html=1;align=center;verticalAlign=middle;resizable=0;points=[];" parent="pzpOyikx3uW7JnPA6GzY-9" vertex="1" connectable="0">
          <mxGeometry x="-0.9033" y="3" relative="1" as="geometry">
            <mxPoint as="offset" />
          </mxGeometry>
        </mxCell>
        <mxCell id="pzpOyikx3uW7JnPA6GzY-11" value="&amp;nbsp;J&amp;nbsp; &amp;nbsp;services info" style="html=1;dashed=0;whitespace=wrap;shape=mxgraph.dfd.dataStoreID;align=left;spacingLeft=3;points=[[0,0],[0.5,0],[1,0],[0,0.5],[1,0.5],[0,1],[0.5,1],[1,1]];fontSize=20;" parent="1" vertex="1">
          <mxGeometry x="573" y="615" width="230" height="64" as="geometry" />
        </mxCell>
        <mxCell id="pzpOyikx3uW7JnPA6GzY-12" value="&amp;nbsp;I&amp;nbsp; &amp;nbsp;package info" style="html=1;dashed=0;whitespace=wrap;shape=mxgraph.dfd.dataStoreID;align=left;spacingLeft=3;points=[[0,0],[0.5,0],[1,0],[0,0.5],[1,0.5],[0,1],[0.5,1],[1,1]];fontSize=20;" parent="1" vertex="1">
          <mxGeometry x="573" y="780" width="230" height="64" as="geometry" />
        </mxCell>
        <mxCell id="pzpOyikx3uW7JnPA6GzY-13" style="edgeStyle=orthogonalEdgeStyle;rounded=0;orthogonalLoop=1;jettySize=auto;html=1;exitX=0.001;exitY=0.692;exitDx=0;exitDy=0;exitPerimeter=0;entryX=0.69;entryY=0;entryDx=0;entryDy=0;entryPerimeter=0;" parent="1" source="pzpOyikx3uW7JnPA6GzY-18" edge="1">
          <mxGeometry relative="1" as="geometry">
            <mxPoint x="160.0600000000004" y="-490" as="targetPoint" />
            <Array as="points">
              <mxPoint x="440" y="-680" />
              <mxPoint x="440" y="-540" />
              <mxPoint x="160" y="-540" />
            </Array>
          </mxGeometry>
        </mxCell>
        <mxCell id="pzpOyikx3uW7JnPA6GzY-14" value="confirm create order" style="edgeLabel;html=1;align=center;verticalAlign=middle;resizable=0;points=[];" parent="pzpOyikx3uW7JnPA6GzY-13" vertex="1" connectable="0">
          <mxGeometry x="0.5605" y="1" relative="1" as="geometry">
            <mxPoint as="offset" />
          </mxGeometry>
        </mxCell>
        <mxCell id="pzpOyikx3uW7JnPA6GzY-15" style="edgeStyle=orthogonalEdgeStyle;rounded=0;orthogonalLoop=1;jettySize=auto;html=1;exitX=0.768;exitY=-0.003;exitDx=0;exitDy=0;exitPerimeter=0;fillColor=#f8cecc;strokeColor=#b85450;" parent="1" source="pzpOyikx3uW7JnPA6GzY-17" edge="1">
          <mxGeometry relative="1" as="geometry">
            <mxPoint x="1040" y="-860" as="targetPoint" />
            <Array as="points">
              <mxPoint x="910" y="-860" />
              <mxPoint x="1040" y="-860" />
            </Array>
          </mxGeometry>
        </mxCell>
        <mxCell id="pzpOyikx3uW7JnPA6GzY-16" value="message notify" style="edgeLabel;html=1;align=center;verticalAlign=middle;resizable=0;points=[];" parent="pzpOyikx3uW7JnPA6GzY-15" vertex="1" connectable="0">
          <mxGeometry x="-0.0558" y="1" relative="1" as="geometry">
            <mxPoint x="46" y="-9" as="offset" />
          </mxGeometry>
        </mxCell>
        <mxCell id="pzpOyikx3uW7JnPA6GzY-17" value="3.0" style="swimlane;childLayout=stackLayout;horizontal=1;startSize=30;horizontalStack=0;rounded=1;fontSize=14;fontStyle=0;strokeWidth=2;resizeParent=0;resizeLast=1;shadow=0;dashed=0;align=center;fillColor=#dae8fc;strokeColor=#6c8ebf;" parent="1" vertex="1">
          <mxGeometry x="787" y="-769" width="160" height="115" as="geometry" />
        </mxCell>
        <mxCell id="pzpOyikx3uW7JnPA6GzY-18" value="manage order" style="align=center;strokeColor=none;fillColor=none;spacingLeft=4;fontSize=20;verticalAlign=middle;resizable=0;rotatable=0;part=1;" parent="pzpOyikx3uW7JnPA6GzY-17" vertex="1">
          <mxGeometry y="30" width="160" height="85" as="geometry" />
        </mxCell>
        <mxCell id="pzpOyikx3uW7JnPA6GzY-19" style="edgeStyle=orthogonalEdgeStyle;rounded=0;orthogonalLoop=1;jettySize=auto;html=1;exitX=0.575;exitY=0;exitDx=0;exitDy=0;exitPerimeter=0;" parent="1" target="pzpOyikx3uW7JnPA6GzY-18" edge="1">
          <mxGeometry relative="1" as="geometry">
            <mxPoint x="140.05000000000064" y="-490" as="sourcePoint" />
            <Array as="points">
              <mxPoint x="140" y="-560" />
              <mxPoint x="420" y="-560" />
              <mxPoint x="420" y="-700" />
            </Array>
          </mxGeometry>
        </mxCell>
        <mxCell id="pzpOyikx3uW7JnPA6GzY-20" value="request create order,customer_id" style="edgeLabel;html=1;align=center;verticalAlign=middle;resizable=0;points=[];" parent="pzpOyikx3uW7JnPA6GzY-19" vertex="1" connectable="0">
          <mxGeometry x="-0.4862" y="3" relative="1" as="geometry">
            <mxPoint as="offset" />
          </mxGeometry>
        </mxCell>
        <mxCell id="pzpOyikx3uW7JnPA6GzY-21" style="edgeStyle=orthogonalEdgeStyle;rounded=0;orthogonalLoop=1;jettySize=auto;html=1;entryX=0.112;entryY=0;entryDx=0;entryDy=0;entryPerimeter=0;exitX=1.002;exitY=0.225;exitDx=0;exitDy=0;exitPerimeter=0;" parent="1" source="pzpOyikx3uW7JnPA6GzY-18" edge="1">
          <mxGeometry relative="1" as="geometry">
            <mxPoint x="950" y="-720" as="sourcePoint" />
            <mxPoint x="1359.5200000000004" y="-450" as="targetPoint" />
          </mxGeometry>
        </mxCell>
        <mxCell id="pzpOyikx3uW7JnPA6GzY-22" value="edit sucess" style="edgeLabel;html=1;align=center;verticalAlign=middle;resizable=0;points=[];" parent="pzpOyikx3uW7JnPA6GzY-21" vertex="1" connectable="0">
          <mxGeometry x="-0.4624" y="-2" relative="1" as="geometry">
            <mxPoint as="offset" />
          </mxGeometry>
        </mxCell>
        <mxCell id="pzpOyikx3uW7JnPA6GzY-23" style="edgeStyle=orthogonalEdgeStyle;rounded=0;orthogonalLoop=1;jettySize=auto;html=1;exitX=0.002;exitY=0.629;exitDx=0;exitDy=0;exitPerimeter=0;" parent="1" source="pzpOyikx3uW7JnPA6GzY-24" edge="1">
          <mxGeometry relative="1" as="geometry">
            <mxPoint x="850" y="-770" as="targetPoint" />
            <Array as="points">
              <mxPoint x="850" y="-980" />
            </Array>
          </mxGeometry>
        </mxCell>
        <mxCell id="pzpOyikx3uW7JnPA6GzY-24" value="&amp;nbsp;B&amp;nbsp; employee info" style="html=1;dashed=0;whitespace=wrap;shape=mxgraph.dfd.dataStoreID;align=left;spacingLeft=3;points=[[0,0],[0.5,0],[1,0],[0,0.5],[1,0.5],[0,1],[0.5,1],[1,1]];fontSize=20;" parent="1" vertex="1">
          <mxGeometry x="920" y="-1020" width="230" height="64" as="geometry" />
        </mxCell>
        <mxCell id="pzpOyikx3uW7JnPA6GzY-25" style="edgeStyle=orthogonalEdgeStyle;rounded=0;orthogonalLoop=1;jettySize=auto;html=1;exitX=0.15;exitY=0.01;exitDx=0;exitDy=0;entryX=0.998;entryY=0.921;entryDx=0;entryDy=0;entryPerimeter=0;exitPerimeter=0;" parent="1" source="pzpOyikx3uW7JnPA6GzY-27" target="pzpOyikx3uW7JnPA6GzY-18" edge="1">
          <mxGeometry relative="1" as="geometry">
            <Array as="points">
              <mxPoint x="960" y="-602" />
              <mxPoint x="960" y="-661" />
            </Array>
          </mxGeometry>
        </mxCell>
        <mxCell id="pzpOyikx3uW7JnPA6GzY-26" value="order detailt" style="edgeLabel;html=1;align=center;verticalAlign=middle;resizable=0;points=[];rotation=90;" parent="pzpOyikx3uW7JnPA6GzY-25" vertex="1" connectable="0">
          <mxGeometry x="0.0826" y="1" relative="1" as="geometry">
            <mxPoint as="offset" />
          </mxGeometry>
        </mxCell>
        <mxCell id="pzpOyikx3uW7JnPA6GzY-27" value="&amp;nbsp;C&amp;nbsp; order info" style="html=1;dashed=0;whitespace=wrap;shape=mxgraph.dfd.dataStoreID;align=left;spacingLeft=3;points=[[0,0],[0.5,0],[1,0],[0,0.5],[1,0.5],[0,1],[0.5,1],[1,1]];fontSize=20;" parent="1" vertex="1">
          <mxGeometry x="920" y="-550" width="268" height="73" as="geometry" />
        </mxCell>
        <mxCell id="pzpOyikx3uW7JnPA6GzY-28" style="edgeStyle=orthogonalEdgeStyle;rounded=0;orthogonalLoop=1;jettySize=auto;html=1;exitX=-0.001;exitY=0.559;exitDx=0;exitDy=0;exitPerimeter=0;fillColor=#f8cecc;strokeColor=#b85450;" parent="1" edge="1">
          <mxGeometry relative="1" as="geometry">
            <mxPoint x="930" y="-768" as="targetPoint" />
            <Array as="points">
              <mxPoint x="930" y="-841" />
              <mxPoint x="930" y="-768" />
            </Array>
            <mxPoint x="1039.705" y="-840.8699999999999" as="sourcePoint" />
          </mxGeometry>
        </mxCell>
        <mxCell id="pzpOyikx3uW7JnPA6GzY-29" value="confirmation notify" style="edgeLabel;html=1;align=center;verticalAlign=middle;resizable=0;points=[];" parent="pzpOyikx3uW7JnPA6GzY-28" vertex="1" connectable="0">
          <mxGeometry x="0.1584" y="3" relative="1" as="geometry">
            <mxPoint x="36" y="-7" as="offset" />
          </mxGeometry>
        </mxCell>
        <mxCell id="pzpOyikx3uW7JnPA6GzY-30" style="edgeStyle=orthogonalEdgeStyle;rounded=0;orthogonalLoop=1;jettySize=auto;html=1;entryX=0.219;entryY=-0.008;entryDx=0;entryDy=0;entryPerimeter=0;" parent="1" target="pzpOyikx3uW7JnPA6GzY-27" edge="1">
          <mxGeometry relative="1" as="geometry">
            <mxPoint x="947" y="-680" as="sourcePoint" />
            <Array as="points">
              <mxPoint x="947" y="-680" />
              <mxPoint x="979" y="-680" />
            </Array>
          </mxGeometry>
        </mxCell>
        <mxCell id="pzpOyikx3uW7JnPA6GzY-31" value="order info" style="edgeLabel;html=1;align=center;verticalAlign=middle;resizable=0;points=[];rotation=90;" parent="pzpOyikx3uW7JnPA6GzY-30" vertex="1" connectable="0">
          <mxGeometry x="-0.144" y="2" relative="1" as="geometry">
            <mxPoint as="offset" />
          </mxGeometry>
        </mxCell>
        <mxCell id="pzpOyikx3uW7JnPA6GzY-32" style="edgeStyle=orthogonalEdgeStyle;rounded=0;orthogonalLoop=1;jettySize=auto;html=1;exitX=0.076;exitY=0.993;exitDx=0;exitDy=0;exitPerimeter=0;startArrow=classic;startFill=1;endArrow=none;endFill=0;" parent="1" source="pzpOyikx3uW7JnPA6GzY-18" target="pzpOyikx3uW7JnPA6GzY-12" edge="1">
          <mxGeometry relative="1" as="geometry">
            <mxPoint x="280" y="830" as="targetPoint" />
            <mxPoint x="801" y="-650" as="sourcePoint" />
            <Array as="points">
              <mxPoint x="799" y="-500" />
              <mxPoint x="280" y="-500" />
              <mxPoint x="280" y="800" />
            </Array>
          </mxGeometry>
        </mxCell>
        <mxCell id="pzpOyikx3uW7JnPA6GzY-33" value="package info" style="edgeLabel;html=1;align=center;verticalAlign=middle;resizable=0;points=[];" parent="pzpOyikx3uW7JnPA6GzY-32" vertex="1" connectable="0">
          <mxGeometry x="0.8977" y="-2" relative="1" as="geometry">
            <mxPoint as="offset" />
          </mxGeometry>
        </mxCell>
        <mxCell id="pzpOyikx3uW7JnPA6GzY-34" style="edgeStyle=orthogonalEdgeStyle;rounded=0;orthogonalLoop=1;jettySize=auto;html=1;exitX=0;exitY=1;exitDx=0;exitDy=0;entryX=1;entryY=0.25;entryDx=0;entryDy=0;" parent="1" source="pzpOyikx3uW7JnPA6GzY-18" edge="1">
          <mxGeometry relative="1" as="geometry">
            <mxPoint x="39.999999999999545" y="-170" as="targetPoint" />
            <Array as="points">
              <mxPoint x="470" y="-654" />
              <mxPoint x="470" y="-170" />
            </Array>
          </mxGeometry>
        </mxCell>
        <mxCell id="pzpOyikx3uW7JnPA6GzY-35" value="receipt" style="edgeLabel;html=1;align=center;verticalAlign=middle;resizable=0;points=[];" parent="pzpOyikx3uW7JnPA6GzY-34" vertex="1" connectable="0">
          <mxGeometry x="-0.6556" y="-2" relative="1" as="geometry">
            <mxPoint x="1" as="offset" />
          </mxGeometry>
        </mxCell>
        <mxCell id="Bh15yI-C7VyQbSbtM7Ea-1" value="10.0" style="swimlane;childLayout=stackLayout;horizontal=1;startSize=30;horizontalStack=0;rounded=1;fontSize=14;fontStyle=0;strokeWidth=2;resizeParent=0;resizeLast=1;shadow=0;dashed=0;align=center;fillColor=#fff2cc;strokeColor=#d6b656;" vertex="1" parent="1">
          <mxGeometry x="-284" y="17" width="188" height="117" as="geometry" />
        </mxCell>
        <mxCell id="Bh15yI-C7VyQbSbtM7Ea-2" value="change language(lv.1)" style="align=center;strokeColor=none;fillColor=none;spacingLeft=4;fontSize=20;verticalAlign=middle;resizable=0;rotatable=0;part=1;" vertex="1" parent="Bh15yI-C7VyQbSbtM7Ea-1">
          <mxGeometry y="30" width="188" height="87" as="geometry" />
        </mxCell>
        <mxCell id="Bh15yI-C7VyQbSbtM7Ea-3" value="10.0" style="swimlane;childLayout=stackLayout;horizontal=1;startSize=30;horizontalStack=0;rounded=1;fontSize=14;fontStyle=0;strokeWidth=2;resizeParent=0;resizeLast=1;shadow=0;dashed=0;align=center;fillColor=#fff2cc;strokeColor=#d6b656;" vertex="1" parent="1">
          <mxGeometry x="-284" y="180" width="188" height="117" as="geometry" />
        </mxCell>
        <mxCell id="Bh15yI-C7VyQbSbtM7Ea-4" value="change theme mode(lv.1)" style="align=center;strokeColor=none;fillColor=none;spacingLeft=4;fontSize=20;verticalAlign=middle;resizable=0;rotatable=0;part=1;" vertex="1" parent="Bh15yI-C7VyQbSbtM7Ea-3">
          <mxGeometry y="30" width="188" height="87" as="geometry" />
        </mxCell>
        <mxCell id="Bh15yI-C7VyQbSbtM7Ea-5" value="SETTING WEBSITE" style="ellipse;shape=cloud;whiteSpace=wrap;html=1;fillColor=#fff2cc;strokeColor=#d6b656;" vertex="1" parent="1">
          <mxGeometry x="-300" y="-200" width="220" height="157" as="geometry" />
        </mxCell>
        <mxCell id="Bh15yI-C7VyQbSbtM7Ea-6" value="LOGIN" style="ellipse;shape=cloud;whiteSpace=wrap;html=1;fillColor=#d5e8d4;strokeColor=#82b366;" vertex="1" parent="1">
          <mxGeometry x="-300" y="-430" width="220" height="157" as="geometry" />
        </mxCell>
        <mxCell id="Bh15yI-C7VyQbSbtM7Ea-7" value="MANAGE ORDER" style="ellipse;shape=cloud;whiteSpace=wrap;html=1;fillColor=#dae8fc;strokeColor=#6c8ebf;" vertex="1" parent="1">
          <mxGeometry x="-300" y="-990" width="220" height="157" as="geometry" />
        </mxCell>
        <mxCell id="Bh15yI-C7VyQbSbtM7Ea-8" value="8.0" style="swimlane;childLayout=stackLayout;horizontal=1;startSize=30;horizontalStack=0;rounded=1;fontSize=14;fontStyle=0;strokeWidth=2;resizeParent=0;resizeLast=1;shadow=0;dashed=0;align=center;fillColor=#dae8fc;strokeColor=#6c8ebf;" vertex="1" parent="1">
          <mxGeometry x="-277" y="-600" width="174" height="117" as="geometry" />
        </mxCell>
        <mxCell id="Bh15yI-C7VyQbSbtM7Ea-9" value="generate reciept(level1 of manage order)" style="align=center;strokeColor=none;fillColor=none;spacingLeft=4;fontSize=20;verticalAlign=middle;resizable=0;rotatable=0;part=1;" vertex="1" parent="Bh15yI-C7VyQbSbtM7Ea-8">
          <mxGeometry y="30" width="174" height="87" as="geometry" />
        </mxCell>
        <mxCell id="Bh15yI-C7VyQbSbtM7Ea-10" value="10.0" style="swimlane;childLayout=stackLayout;horizontal=1;startSize=30;horizontalStack=0;rounded=1;fontSize=14;fontStyle=0;strokeWidth=2;resizeParent=0;resizeLast=1;shadow=0;dashed=0;align=center;fillColor=#dae8fc;strokeColor=#6c8ebf;" vertex="1" parent="1">
          <mxGeometry x="-284" y="-782.75" width="188" height="117" as="geometry" />
        </mxCell>
        <mxCell id="Bh15yI-C7VyQbSbtM7Ea-11" value="booking (level1 of buy service)" style="align=center;strokeColor=none;fillColor=none;spacingLeft=4;fontSize=20;verticalAlign=middle;resizable=0;rotatable=0;part=1;" vertex="1" parent="Bh15yI-C7VyQbSbtM7Ea-10">
          <mxGeometry y="30" width="188" height="87" as="geometry" />
        </mxCell>
        <mxCell id="Bh15yI-C7VyQbSbtM7Ea-12" value="MANAGE Datastore" style="ellipse;shape=cloud;whiteSpace=wrap;html=1;fillColor=#e1d5e7;strokeColor=#9673a6;" vertex="1" parent="1">
          <mxGeometry x="-300" y="366" width="220" height="157" as="geometry" />
        </mxCell>
        <mxCell id="Bh15yI-C7VyQbSbtM7Ea-13" value="MANAGE EMPLYEE" style="ellipse;shape=cloud;whiteSpace=wrap;html=1;fillColor=#f8cecc;strokeColor=#b85450;" vertex="1" parent="1">
          <mxGeometry x="-300" y="610" width="220" height="157" as="geometry" />
        </mxCell>
        <mxCell id="V9iYJk8YJ2hRUk19OHxT-1" value="7.0" style="swimlane;childLayout=stackLayout;horizontal=1;startSize=30;horizontalStack=0;rounded=1;fontSize=14;fontStyle=0;strokeWidth=2;resizeParent=0;resizeLast=1;shadow=0;dashed=0;align=center;fillColor=#dae8fc;strokeColor=#6c8ebf;" vertex="1" parent="1">
          <mxGeometry x="1220" y="-260" width="188" height="117" as="geometry" />
        </mxCell>
        <mxCell id="V9iYJk8YJ2hRUk19OHxT-2" value="clock work" style="align=center;strokeColor=#6c8ebf;fillColor=#dae8fc;spacingLeft=4;fontSize=20;verticalAlign=middle;resizable=0;rotatable=0;part=1;" vertex="1" parent="V9iYJk8YJ2hRUk19OHxT-1">
          <mxGeometry y="30" width="188" height="87" as="geometry" />
        </mxCell>
        <mxCell id="V9iYJk8YJ2hRUk19OHxT-3" value="6.0" style="swimlane;childLayout=stackLayout;horizontal=1;startSize=30;horizontalStack=0;rounded=1;fontSize=14;fontStyle=0;strokeWidth=2;resizeParent=0;resizeLast=1;shadow=0;dashed=0;align=center;fillColor=#dae8fc;strokeColor=#6c8ebf;" vertex="1" parent="1">
          <mxGeometry x="1220" y="-110" width="188" height="117" as="geometry" />
        </mxCell>
        <mxCell id="V9iYJk8YJ2hRUk19OHxT-4" value="cal salary" style="align=center;strokeColor=#6c8ebf;fillColor=#dae8fc;spacingLeft=4;fontSize=20;verticalAlign=middle;resizable=0;rotatable=0;part=1;" vertex="1" parent="V9iYJk8YJ2hRUk19OHxT-3">
          <mxGeometry y="30" width="188" height="87" as="geometry" />
        </mxCell>
        <mxCell id="V9iYJk8YJ2hRUk19OHxT-5" value="5.0" style="swimlane;childLayout=stackLayout;horizontal=1;startSize=30;horizontalStack=0;rounded=1;fontSize=14;fontStyle=0;strokeWidth=2;resizeParent=0;resizeLast=1;shadow=0;dashed=0;align=center;fillColor=#dae8fc;strokeColor=#6c8ebf;" vertex="1" parent="1">
          <mxGeometry x="1220" y="50" width="188" height="117" as="geometry" />
        </mxCell>
        <mxCell id="V9iYJk8YJ2hRUk19OHxT-6" value="manage workleave" style="align=center;strokeColor=#6c8ebf;fillColor=#dae8fc;spacingLeft=4;fontSize=20;verticalAlign=middle;resizable=0;rotatable=0;part=1;" vertex="1" parent="V9iYJk8YJ2hRUk19OHxT-5">
          <mxGeometry y="30" width="188" height="87" as="geometry" />
        </mxCell>
        <mxCell id="V9iYJk8YJ2hRUk19OHxT-7" value="7.0" style="swimlane;childLayout=stackLayout;horizontal=1;startSize=30;horizontalStack=0;rounded=1;fontSize=14;fontStyle=0;strokeWidth=2;resizeParent=0;resizeLast=1;shadow=0;dashed=0;align=center;fillColor=#dae8fc;strokeColor=#6c8ebf;" vertex="1" parent="1">
          <mxGeometry x="1230" y="391.5" width="188" height="117" as="geometry" />
        </mxCell>
        <mxCell id="V9iYJk8YJ2hRUk19OHxT-8" value="manage service" style="align=center;strokeColor=#6c8ebf;fillColor=#dae8fc;spacingLeft=4;fontSize=20;verticalAlign=middle;resizable=0;rotatable=0;part=1;" vertex="1" parent="V9iYJk8YJ2hRUk19OHxT-7">
          <mxGeometry y="30" width="188" height="87" as="geometry" />
        </mxCell>
        <mxCell id="V9iYJk8YJ2hRUk19OHxT-15" value="" style="edgeStyle=orthogonalEdgeStyle;rounded=0;orthogonalLoop=1;jettySize=auto;html=1;" edge="1" parent="1" source="V9iYJk8YJ2hRUk19OHxT-9" target="V9iYJk8YJ2hRUk19OHxT-8">
          <mxGeometry relative="1" as="geometry" />
        </mxCell>
        <mxCell id="V9iYJk8YJ2hRUk19OHxT-9" value="6.0" style="swimlane;childLayout=stackLayout;horizontal=1;startSize=30;horizontalStack=0;rounded=1;fontSize=14;fontStyle=0;strokeWidth=2;resizeParent=0;resizeLast=1;shadow=0;dashed=0;align=center;fillColor=#dae8fc;strokeColor=#6c8ebf;" vertex="1" parent="1">
          <mxGeometry x="1230" y="541.5" width="188" height="117" as="geometry" />
        </mxCell>
        <mxCell id="V9iYJk8YJ2hRUk19OHxT-10" value="manage comission" style="align=center;strokeColor=#6c8ebf;fillColor=#dae8fc;spacingLeft=4;fontSize=20;verticalAlign=middle;resizable=0;rotatable=0;part=1;" vertex="1" parent="V9iYJk8YJ2hRUk19OHxT-9">
          <mxGeometry y="30" width="188" height="87" as="geometry" />
        </mxCell>
        <mxCell id="V9iYJk8YJ2hRUk19OHxT-11" value="5.0" style="swimlane;childLayout=stackLayout;horizontal=1;startSize=30;horizontalStack=0;rounded=1;fontSize=14;fontStyle=0;strokeWidth=2;resizeParent=0;resizeLast=1;shadow=0;dashed=0;align=center;fillColor=#dae8fc;strokeColor=#6c8ebf;" vertex="1" parent="1">
          <mxGeometry x="1230" y="701.5" width="188" height="117" as="geometry" />
        </mxCell>
        <mxCell id="V9iYJk8YJ2hRUk19OHxT-12" value="manage promotions" style="align=center;strokeColor=#6c8ebf;fillColor=#dae8fc;spacingLeft=4;fontSize=20;verticalAlign=middle;resizable=0;rotatable=0;part=1;" vertex="1" parent="V9iYJk8YJ2hRUk19OHxT-11">
          <mxGeometry y="30" width="188" height="87" as="geometry" />
        </mxCell>
        <mxCell id="V9iYJk8YJ2hRUk19OHxT-13" value="5.0" style="swimlane;childLayout=stackLayout;horizontal=1;startSize=30;horizontalStack=0;rounded=1;fontSize=14;fontStyle=0;strokeWidth=2;resizeParent=0;resizeLast=1;shadow=0;dashed=0;align=center;fillColor=#dae8fc;strokeColor=#6c8ebf;" vertex="1" parent="1">
          <mxGeometry x="1230" y="861.5" width="188" height="117" as="geometry" />
        </mxCell>
        <mxCell id="V9iYJk8YJ2hRUk19OHxT-14" value="display dashboard" style="align=center;strokeColor=#6c8ebf;fillColor=#dae8fc;spacingLeft=4;fontSize=20;verticalAlign=middle;resizable=0;rotatable=0;part=1;" vertex="1" parent="V9iYJk8YJ2hRUk19OHxT-13">
          <mxGeometry y="30" width="188" height="87" as="geometry" />
        </mxCell>
      </root>
    </mxGraphModel>
  </diagram>
</mxfile>
